<?xml version="1.0" encoding="UTF-8"?>
<!DOCTYPE svg PUBLIC "-//W3C//DTD SVG 1.1//EN" "http://www.w3.org/Graphics/SVG/1.1/DTD/svg11.dtd">
<!-- Creator: CorelDRAW -->
<svg xmlns="http://www.w3.org/2000/svg" xml:space="preserve" width="140.713mm" height="134.964mm" version="1.1" style="shape-rendering:geometricPrecision; text-rendering:geometricPrecision; image-rendering:optimizeQuality; fill-rule:evenodd; clip-rule:evenodd"
viewBox="0 0 700.46 671.84"
 xmlns:xlink="http://www.w3.org/1999/xlink"
 xmlns:xodm="http://www.corel.com/coreldraw/odm/2003">
 <defs>
  <style type="text/css">
   <![CDATA[
    .fil2 {fill:#263238;fill-rule:nonzero}
    .fil0 {fill:#FFD300;fill-rule:nonzero}
    .fil3 {fill:#FFF400;fill-rule:nonzero}
    .fil4 {fill:white;fill-rule:nonzero}
    .fil1 {fill:#FFF400;fill-rule:nonzero;fill-opacity:0.701961}
   ]]>
  </style>
 </defs>
 <g id="Capa_x0020_1">
  <metadata id="CorelCorpID_0Corel-Layer"/>
  <g id="_2785096103616">
   <g id="freepik--background-simple--inject-273">
    <path class="fil0" d="M35.66 262.23c0,0 -65.51,98.92 -18.96,248.11 46.55,149.19 182.18,187.26 262.61,145.82 80.43,-41.43 92.16,-95.35 157.17,-134.48 65.01,-39.13 199.05,-37.75 250.67,-145.4 51.62,-107.65 -55.43,-258.53 -176.61,-345.43 -121.18,-86.89 -384.6,15.88 -474.89,231.38z"/>
    <path class="fil1" d="M35.66 262.23c0,0 -65.51,98.92 -18.96,248.11 46.55,149.19 182.18,187.26 262.61,145.82 80.43,-41.43 92.16,-95.35 157.17,-134.48 65.01,-39.13 199.05,-37.75 250.67,-145.4 51.62,-107.65 -55.43,-258.53 -176.61,-345.43 -121.18,-86.89 -384.6,15.88 -474.89,231.38z"/>
   </g>
   <g id="freepik--Plant--inject-273">
    <path class="fil2" d="M452.64 475.68c5.8,2.53 19.95,2.2 19.96,2.2 0.02,0 -3.05,-9.27 -3.32,-9.83 -3.1,-6.48 -12.96,-17.22 -20.9,-16.2 -4.62,0.75 -8.01,4.74 -8.01,9.42 0,0.86 0.12,1.71 0.34,2.54 1.33,5.61 7,9.72 11.92,11.88z"/>
    <path class="fil2" d="M457.53 516.68c6,0.88 18.63,-2.79 19.64,-3.08 2.07,7.2 4.65,14.31 7.67,21.19 1.73,4.02 3.61,8.02 5.54,12.01 -1.15,-1.62 -2.2,-3.24 -2.37,-3.39 -4.72,-5.44 -17.01,-13.21 -24.43,-10.05 -3.4,1.56 -5.58,4.95 -5.58,8.68 0,1.72 0.47,3.41 1.34,4.88 2.74,4.99 9.3,7.45 14.58,8.23 5.28,0.78 16.2,-2.12 19.09,-2.93 0.75,1.52 1.49,3.05 2.25,4.57 3.66,7.28 7.34,14.58 10.73,21.76 1.2,2.54 2.28,5.09 3.39,7.63 -1.02,-1.49 -1.9,-2.74 -2.06,-2.92 -4.71,-5.44 -17.01,-13.21 -24.43,-10.05 -3.39,1.55 -5.57,4.94 -5.57,8.67 0,1.72 0.47,3.4 1.34,4.88 2.74,4.99 9.3,7.47 14.58,8.23 5.28,0.76 15.17,-1.83 18.57,-2.79 1.04,2.66 2.09,5.3 2.98,7.91 0.57,1.8 1.25,3.48 1.72,5.31 0.47,1.83 1,3.6 1.49,5.36 0.83,3.45 1.7,7 2.43,10.37 0.52,2.35 0.97,4.6 1.43,6.87 -1.15,-2.54 -3.53,-7.49 -3.79,-7.87 -3.82,-6.11 -14.81,-15.64 -22.68,-13.64 -4.1,1.16 -6.94,4.91 -6.94,9.18 0,1.23 0.24,2.45 0.7,3.59 1.96,5.35 8.1,8.78 13.21,10.35 5.67,1.72 18.2,0.15 19.77,0 0.75,3.74 1.44,7.4 2.04,10.86 0.32,1.83 0.62,3.55 0.89,5.27l4.99 0c-0.37,-1.98 -0.76,-4.02 -1.18,-6.14 -0.75,-3.81 -1.62,-7.86 -2.56,-12.02 3.76,-1.49 7.46,-3.25 11.03,-5.18 4.13,4.47 14.7,9.72 16.07,10.37 -1.44,3.53 -2.88,6.97 -4.28,10.18 -0.42,0.97 -0.84,1.88 -1.25,2.8l5.26 -0 0.39 -0.94c1.49,-3.58 2.98,-7.45 4.5,-11.44 1.51,0.32 13.92,2.85 19.7,1.54 5.25,-1.18 11.6,-4.15 13.95,-9.33 0.65,-1.31 0.99,-2.76 0.99,-4.23 0,-4 -2.5,-7.58 -6.25,-8.96 -7.65,-2.58 -19.31,6.11 -23.59,11.91 -0.24,0.34 -2.58,4.34 -3.99,6.9 0.6,-1.62 1.22,-3.24 1.81,-4.86 1.22,-3.24 2.33,-6.68 3.56,-10.27 0.52,-1.77 1.05,-3.55 1.62,-5.35 0.57,-1.8 0.96,-3.71 1.44,-5.57 1.04,-4.38 1.88,-8.85 2.62,-13.37 2.92,1.05 13.32,4.68 18.7,4.29 5.38,-0.39 12.1,-2.35 15.21,-7.11 1.11,-1.6 1.71,-3.51 1.71,-5.46 0,-3.49 -1.9,-6.7 -4.95,-8.38 -7.18,-3.69 -20.03,3.11 -25.13,8.2 -0.31,0.31 -3.56,4.38 -5.31,6.63 0.44,-2.72 0.88,-5.43 1.22,-8.2 0.99,-8 1.75,-16.12 2.54,-24.22 0.24,-2.48 0.5,-4.96 0.76,-7.42 1.04,0.39 13.32,4.96 19.35,4.54 5.36,-0.39 12.1,-2.35 15.2,-7.13 1.12,-1.6 1.72,-3.51 1.72,-5.47 0,-3.49 -1.9,-6.7 -4.96,-8.37 -7.16,-3.69 -20.01,3.13 -25.11,8.2 -0.39,0.39 -5.06,6.24 -6.17,7.78 0.58,-5.44 1.2,-10.87 2.04,-16.2 1.07,-7.2 2.64,-14.32 4.65,-21.31 0.47,0.19 13.25,5.01 19.44,4.59 5.36,-0.39 12.09,-2.35 15.2,-7.13 1.12,-1.6 1.72,-3.51 1.72,-5.46 0,-3.49 -1.9,-6.7 -4.96,-8.37 -7.16,-3.69 -20.01,3.13 -25.11,8.2 -0.4,0.4 -5.43,6.69 -6.25,7.91 0.11,-0.4 0.2,-0.84 0.32,-1.25 2.2,-6.94 5.04,-13.72 8.44,-20.16 1.83,-3.58 3.78,-6.9 5.75,-10.11 2.3,1.15 12.82,6.25 18.42,6.48 5.61,0.23 12.28,-1 15.9,-5.4 1.55,-1.75 2.4,-4 2.4,-6.33 0,-3.09 -1.5,-5.99 -4.01,-7.78 -6.72,-4.46 -20.24,0.91 -25.92,5.4 -0.31,0.24 -3.14,3.06 -5.17,5.15 0.91,-1.43 1.81,-2.92 2.72,-4.28 3.37,-5.07 6.77,-9.51 9.82,-13.43 1.75,-2.2 3.37,-4.16 4.86,-6 2.84,0 14.24,-0.39 19.23,-2.74 4.99,-2.35 10.43,-6.48 11.62,-12.12 0.18,-0.75 0.27,-1.51 0.27,-2.28 0,-4.78 -3.53,-8.82 -8.26,-9.47 -8,-0.86 -17.53,10.13 -20.46,16.71 -0.26,0.57 -3.24,9.92 -3.05,9.92l0.18 -0c-1.52,1.72 -3.13,3.58 -4.86,5.65 -3.14,3.86 -6.64,8.23 -10.14,13.25 -3.8,5.36 -7.33,10.97 -10.51,16.75 -3.59,6.46 -6.61,13.25 -8.98,20.23 0,0.08 0,0.18 0,0.26 0,-2.37 0,-8.98 -0.13,-9.48 -0.92,-7.15 -6.9,-20.4 -14.84,-21.86 -0.49,-0.07 -0.98,-0.11 -1.47,-0.11 -5.09,0 -9.29,4 -9.53,9.09 -0.45,5.67 3.65,11.34 7.66,14.94 4.52,4.03 17.08,7.94 18.08,8.25 -2.22,7.15 -4.04,14.52 -5.31,21.9 -0.76,4.33 -1.41,8.69 -1.99,13.08 0,-2.04 0,-3.87 -0.1,-4.11 -0.94,-7.15 -6.92,-20.4 -14.84,-21.87 -0.49,-0.08 -0.99,-0.12 -1.49,-0.12 -5.09,0 -9.29,4 -9.53,9.09 -0.45,5.67 3.66,11.34 7.66,14.94 4,3.6 14.71,7.19 17.53,8.1 -0.19,1.62 -0.42,3.37 -0.63,5.06 -0.97,8.1 -1.9,16.2 -3.05,24.08 -0.4,2.77 -0.91,5.51 -1.41,8.23 0,-1.81 0,-3.34 -0.1,-3.58 -0.92,-7.13 -6.9,-20.38 -14.83,-21.86 -0.49,-0.08 -0.99,-0.12 -1.48,-0.12 -5.1,0 -9.29,4 -9.53,9.09 -0.45,5.67 3.65,11.34 7.66,14.94 4.02,3.6 13.68,6.84 17.03,7.92 -0.58,2.77 -1.17,5.56 -1.86,8.23 -0.52,1.81 -0.89,3.58 -1.51,5.38 -0.62,1.8 -1.15,3.55 -1.72,5.3 -1.22,3.34 -2.45,6.77 -3.71,10 -0.86,2.24 -1.72,4.36 -2.58,6.48 0.44,-2.75 1.17,-8.2 1.18,-8.65 -0.09,-6.33 -1.8,-12.54 -4.97,-18.02 0,-0.14 0.01,-0.29 0.01,-0.43 0,-0.56 -0.05,-1.13 -0.14,-1.69 -0.59,-4.77 -4.65,-8.36 -9.46,-8.36 -0.74,0 -1.49,0.09 -2.21,0.26 -7.79,2.07 -12.74,15.75 -13.11,22.94 0,0.42 0.26,5.06 0.49,7.97 -0.39,-1.7 -0.76,-3.35 -1.18,-5.09 -0.81,-3.45 -1.73,-6.87 -2.71,-10.55 -0.53,-1.75 -1.07,-3.53 -1.62,-5.33 -0.55,-1.8 -1.26,-3.61 -1.9,-5.44 -1.54,-4.21 -3.24,-8.41 -5.17,-12.61 3.01,-0.71 13.69,-3.43 17.97,-6.72 4.28,-3.29 8.8,-8.64 8.75,-14.32 0,-0.07 0,-0.15 0,-0.23 0,-5.26 -4.27,-9.53 -9.53,-9.53 -0.26,0 -0.52,0.01 -0.78,0.03 -8.02,0.88 -14.97,13.64 -16.43,20.69 -0.08,0.44 -0.57,5.62 -0.78,8.47 -1.13,-2.51 -2.27,-5.02 -3.52,-7.52 -3.58,-7.23 -7.42,-14.4 -11.24,-21.6 -1.17,-2.2 -2.3,-4.42 -3.45,-6.63 1.09,-0.24 13.84,-3.24 18.63,-6.89 4.28,-3.24 8.8,-8.64 8.75,-14.32 0,-0.07 0,-0.15 0,-0.23 0,-5.26 -4.27,-9.53 -9.53,-9.53 -0.26,0 -0.52,0.01 -0.78,0.03 -8,0.88 -14.97,13.64 -16.43,20.69 -0.1,0.53 -0.78,7.99 -0.86,9.88 -2.53,-4.86 -4.99,-9.72 -7.23,-14.58 -3.06,-6.58 -5.72,-13.41 -7.87,-20.33 0.5,-0.11 13.82,-3.14 18.75,-6.9 4.26,-3.24 8.8,-8.64 8.75,-14.32 -0.01,-0.08 -0.01,-0.15 -0.01,-0.22 0,-5.27 -4.27,-9.54 -9.54,-9.54 -0.25,0 -0.51,0.01 -0.76,0.03 -8.02,0.86 -14.97,13.64 -16.43,20.69 -0.11,0.55 -0.83,8.57 -0.86,10.03 -0.13,-0.41 -0.29,-0.81 -0.42,-1.22 -1.99,-6.99 -3.37,-14.22 -4.08,-21.46 -0.44,-4 -0.65,-7.86 -0.76,-11.62 2.54,-0.31 14.13,-1.85 18.92,-4.76 4.8,-2.92 9.72,-7.6 10.27,-13.27 0.06,-0.43 0.09,-0.87 0.09,-1.31 0,-5.16 -4.11,-9.38 -9.26,-9.52 -8.1,0 -16.38,11.91 -18.6,18.76 -0.11,0.37 -0.92,4.29 -1.47,7.16 0,-1.7 -0.08,-3.45 -0.08,-5.07 0,-6.09 0.41,-11.68 0.78,-16.62 0.24,-2.8 0.52,-5.35 0.79,-7.71 2.33,-1.62 11.67,-8.1 14.58,-12.88 2.92,-4.78 5.09,-11.23 3,-16.53 -1.35,-3.8 -4.96,-6.34 -8.99,-6.34 -1.44,0 -2.86,0.33 -4.15,0.95 -7.16,3.71 -9.04,18.13 -7.86,25.23 0.1,0.62 2.8,10.03 2.93,9.95l0.13 -0.1c-0.31,2.27 -0.62,4.71 -0.91,7.39 -0.49,4.94 -1,10.53 -1.13,16.66 -0.06,1.94 -0.1,3.93 -0.1,5.89 0,4.63 0.21,9.28 0.58,13.89 0.55,7.33 1.81,14.68 3.66,21.81 0.02,0.09 0.05,0.18 0.08,0.26 -1.28,-1.99 -5.01,-7.45 -5.35,-7.84 -4.7,-5.44 -17.01,-13.19 -24.43,-10.05 -3.39,1.55 -5.57,4.95 -5.57,8.68 0,1.72 0.47,3.41 1.34,4.88 2.93,4.75 9.49,7.21 14.81,7.99z"/>
    <path class="fil2" d="M595.81 478.76c0.13,0.08 2.58,-9.41 2.66,-10.03 1,-7.13 -1.28,-21.5 -8.54,-25 -1.22,-0.55 -2.55,-0.83 -3.89,-0.83 -4.13,0 -7.79,2.66 -9.07,6.58 -1.94,5.35 0.52,11.91 3.43,16.43 3.42,5.33 15.41,12.85 15.41,12.85z"/>
   </g>
   <g id="freepik--Picture--inject-273">
    <path class="fil2" d="M250.17 369.65l-214.72 0 0 -278.14 214.72 0 0 278.14zm-213.1 -1.62l211.48 0 0 -274.9 -211.48 0 0 274.9z"/>
    <path class="fil2" d="M244.11 361.81l-202.66 0 0 -262.48 202.66 0 0 262.48zm-200.91 -1.62l199.29 0 0 -259.24 -199.42 0 0.13 259.24z"/>
    <path class="fil2" d="M193.75 296.42l-101.87 0 0 -131.65 101.87 0 0 131.65zm-100.21 -1.62l98.59 0 0 -128.41 -98.63 0 0.03 128.41z"/>
   </g>
   <g id="freepik--Symbol--inject-273">
    <path class="fil2" d="M481.8 251.92l-34.98 -4.94 4.86 -34.74 35 4.86 -4.88 34.82zm-33.15 -6.32l31.77 4.49 4.46 -31.53 -31.79 -4.49 -4.44 31.53zm38.72 -45.76l-32 -4.52 4.63 -32.83 0.31 -0.19c8.46,-5.2 16.54,-11.05 24.11,-17.49 7.08,-5.97 13.26,-12.95 18.3,-20.72 4.77,-7.4 7.88,-15.76 9.11,-24.48 0.96,-6.76 0.18,-12.28 -2.32,-16.46 -2.5,-4.18 -6.61,-6.59 -12.3,-7.4 -1.06,-0.21 -2.15,-0.31 -3.24,-0.31 -3.34,0 -6.61,1.01 -9.38,2.88 -3.46,2.67 -5.64,6.68 -6.01,11.03 -0.19,1.27 -0.29,2.56 -0.29,3.84 0,0.85 0.04,1.7 0.13,2.54 0.21,2.09 0.49,4.34 0.83,6.69l0.11 0.86 -33.43 2.48 -0.13 -0.7c-0.69,-3.4 -1.12,-6.87 -1.25,-10.34 -0.02,-0.7 -0.04,-1.42 -0.04,-2.13 0,-2.67 0.19,-5.34 0.56,-7.98 1.99,-14.11 8,-24.92 17.82,-32.13 9.82,-7.21 23.01,-9.72 39.1,-7.42 16.43,2.32 28.71,8.67 36.54,18.86 7.83,10.19 10.63,23.7 8.31,40.13 -1.34,10.19 -4.7,20.02 -9.86,28.9 -5.2,8.71 -11.82,16.54 -19.53,23.13 -8.27,7.09 -17.21,13.48 -26.62,18.98l-3.46 24.77zm-30.17 -5.9l28.79 4.07 3.39 -24.01 0.34 -0.2c9.45,-5.5 18.41,-11.89 26.7,-19.01 7.58,-6.5 14.09,-14.22 19.2,-22.78 5.07,-8.67 8.4,-18.31 9.72,-28.28 2.25,-15.98 -0.44,-29.07 -7.99,-38.89 -7.55,-9.82 -19.44,-15.98 -35.48,-18.24 -15.65,-2.2 -28.42,0.19 -37.91,7.13 -9.49,6.93 -15.36,17.36 -17.29,31.02 -0.36,2.56 -0.54,5.15 -0.54,7.74 0,0.69 0.02,1.4 0.04,2.08 0.11,3.14 0.49,6.29 1.07,9.38l30.27 -2.25c-0.28,-2.06 -0.52,-4.03 -0.71,-5.9 -0.09,-0.88 -0.13,-1.78 -0.13,-2.67 0,-1.37 0.1,-2.75 0.31,-4.1 0.43,-4.78 2.85,-9.18 6.66,-12.1 3.04,-2.08 6.64,-3.2 10.33,-3.2 1.17,0 2.33,0.11 3.48,0.33 6.21,0.88 10.73,3.63 13.45,8.1 2.72,4.47 3.55,10.39 2.54,17.51 -1.24,8.97 -4.45,17.58 -9.35,25.2 -5.12,7.89 -11.41,15.01 -18.6,21.06 -7.53,6.39 -15.59,12.26 -23.98,17.44l-4.3 30.57z"/>
   </g>
   <g id="freepik--Character--inject-273">
    <path class="fil3" d="M277.86 331.32c0,0 -104.01,1.38 -107.25,8.78 -3.24,7.4 -18.03,97.09 -18.96,128 -0.92,30.91 -1.38,51.31 1.85,55.01 3.22,3.69 53.63,32.83 53.63,32.83 0,0 -23.58,82.75 -16.2,85.53 7.37,2.79 52.71,14.32 81.82,14.79 29.12,0.47 57.8,0.45 60.11,0.45 2.32,0 76.74,2.77 102.63,-3.24 25.89,-6.01 33.73,-6.48 33.73,-16.64 0,-10.16 -6.48,-22.68 -6.93,-24.95 -0.45,-2.27 17.58,-177.53 7.4,-220.52 -10.18,-42.99 -23.58,-59.64 -33.75,-62.41 -10.18,-2.77 -82.75,-0.92 -82.75,-0.92l-75.34 3.29z"/>
    <path class="fil2" d="M372.78 658.25c-11.34,0 -24,-0.18 -37.64,-0.57l-2.25 0c-5.19,0 -32.41,0 -60.11,-0.45 -29.6,-0.47 -74.91,-12.15 -82.1,-14.86 -1.62,-0.58 -5.3,-1.98 4.86,-44.74 4.44,-18.83 9.72,-37.57 10.69,-41.15 -5.75,-3.32 -50.15,-29.08 -53.27,-32.68 -3.42,-3.9 -3.03,-22.68 -2.06,-55.56 0.94,-31.32 15.98,-121.37 19.02,-128.36 3.24,-7.5 90.49,-9.04 107.97,-9.27l75.34 -3.24c2.98,-0.08 72.91,-1.81 82.99,0.96 6.25,1.62 22.08,11.24 34.33,63 8.38,35.42 -2.15,158.37 -6.12,204.64 -0.76,8.9 -1.31,15.33 -1.26,15.96 0.36,1.13 0.79,2.24 1.26,3.32 1.98,4.86 5.67,14 5.67,21.74 0,9.72 -6.59,11.15 -26.2,15.57l-8.1 1.86c-11.18,2.56 -33.04,3.82 -63.03,3.82zm26.49 -329.92c-22.02,0 -45.61,0.58 -46.03,0.6l-75.34 3.24 -0 -0c-40.02,0.53 -104.31,3.24 -106.52,8.3 -3.03,6.92 -17.95,96.55 -18.89,127.76 -0.81,27.27 -1.52,50.83 1.62,54.46 2.58,2.95 39.44,24.56 53.47,32.65 0.25,0.14 0.4,0.41 0.4,0.7 0,0.08 -0.01,0.15 -0.03,0.22 -11.52,40.33 -20.9,82.91 -16.71,84.53 7.15,2.67 52.14,14.27 81.55,14.74 27.72,0.44 54.91,0.45 60.1,0.45l2.3 0c49.43,1.39 85,0.24 100.13,-3.24 2.96,-0.7 5.69,-1.3 8.18,-1.86 19.15,-4.33 24.94,-5.64 24.94,-14 0,-7.42 -3.61,-16.35 -5.56,-21.14 -0.53,-1.19 -0.99,-2.42 -1.36,-3.66 -0.08,-0.47 0.15,-3.32 1.26,-16.36 3.95,-46.21 14.47,-168.95 6.14,-204.15 -12.04,-50.91 -27.2,-60.18 -33.17,-61.81 -4.26,-1.07 -19.93,-1.41 -36.49,-1.41zm-121.41 2.98l0 0z"/>
    <path class="fil2" d="M322.45 374.8c-0,-0 -0.01,-0 -0.01,-0 -0.32,0 -0.61,-0.19 -0.73,-0.49 -0.05,-0.1 -0.07,-0.21 -0.07,-0.33 0,-0.32 0.19,-0.62 0.49,-0.74 3.66,-1.56 7.28,-3.38 10.73,-5.39 0.12,-0.07 0.26,-0.11 0.4,-0.11 0.45,0 0.81,0.36 0.81,0.81 0,0.29 -0.16,0.56 -0.41,0.7 -3.5,2.05 -7.17,3.88 -10.91,5.47 -0.09,0.05 -0.19,0.07 -0.29,0.07 -0,0 -0.01,0 -0.01,0l-0 0z"/>
    <path class="fil2" d="M338.15 366.35c-0.27,-0 -0.52,-0.14 -0.68,-0.36 -0.08,-0.13 -0.13,-0.28 -0.13,-0.44 0,-0.28 0.14,-0.53 0.37,-0.68 12.86,-8.57 24.21,-19.33 33.43,-31.73 0.15,-0.21 0.4,-0.34 0.66,-0.34 0.17,0 0.33,0.05 0.47,0.15 0.21,0.15 0.34,0.39 0.34,0.65 0,0.17 -0.05,0.33 -0.15,0.46 -9.36,12.57 -20.84,23.45 -33.87,32.14 -0.12,0.09 -0.27,0.14 -0.42,0.14 -0.01,0 -0.02,0 -0.02,-0l-0 0z"/>
    <path class="fil2" d="M347.68 370.88c-0.3,-0 -0.57,-0.16 -0.71,-0.42 -0.07,-0.12 -0.1,-0.25 -0.1,-0.39 0,-0.3 0.16,-0.57 0.42,-0.71 8.1,-4.34 17.58,-17.58 17.68,-17.71 0.15,-0.25 0.41,-0.4 0.7,-0.4 0.45,0 0.81,0.36 0.81,0.81 0,0.19 -0.07,0.38 -0.19,0.53 -0.39,0.55 -9.72,13.68 -18.23,18.2 -0.11,0.06 -0.24,0.1 -0.37,0.1 -0,0 -0,0 -0,0l-0 0z"/>
    <path class="fil2" d="M299.54 501.06c-0.35,-0.01 -0.66,-0.23 -0.76,-0.57l-2.72 -8.46c-0.03,-0.08 -0.04,-0.17 -0.04,-0.26 0,-0.35 0.23,-0.66 0.56,-0.76 0.08,-0.03 0.17,-0.04 0.25,-0.04 0.35,0 0.66,0.23 0.77,0.56l2.72 8.46c0.03,0.08 0.04,0.17 0.04,0.25 0,0.35 -0.23,0.66 -0.56,0.77 -0.08,0.03 -0.17,0.05 -0.26,0.05l0 0z"/>
    <path class="fil2" d="M314.38 547.14c0,-0 0,-0 0,-0 -0.35,0 -0.66,-0.23 -0.76,-0.57l-12.05 -37.41c-0.02,-0.08 -0.04,-0.17 -0.04,-0.25 0,-0.47 0.38,-0.85 0.85,-0.85 0.37,0 0.7,0.24 0.81,0.6l12.06 37.43c0.02,0.08 0.04,0.16 0.04,0.24 0,0.35 -0.22,0.66 -0.55,0.78l-0.34 0.03z"/>
    <path class="fil2" d="M318.09 548.06c-0.01,0 -0.02,0 -0.03,0 -0.15,0 -0.29,-0.05 -0.41,-0.13 -0.24,-0.15 -0.38,-0.41 -0.38,-0.69 0,-0.15 0.04,-0.3 0.12,-0.43l12.02 -18.94c0.14,-0.24 0.4,-0.39 0.68,-0.39 0.15,0 0.31,0.05 0.43,0.13 0.23,0.15 0.38,0.41 0.38,0.69 0,0.15 -0.04,0.3 -0.12,0.42l-12.02 18.96c-0.15,0.23 -0.41,0.37 -0.68,0.37l-0 0z"/>
    <path class="fil2" d="M345.36 536.96c-0.01,0 -0.02,0 -0.03,0 -0.44,0 -0.79,-0.35 -0.79,-0.79 0,-0.21 0.08,-0.4 0.22,-0.55l29.16 -32.83c0.15,-0.17 0.37,-0.27 0.61,-0.27 0.45,0 0.81,0.36 0.81,0.81 0,0.2 -0.07,0.39 -0.21,0.54l-29.17 32.83c-0.15,0.17 -0.36,0.26 -0.59,0.26 -0.01,0 -0.02,0 -0.03,-0l0 0z"/>
    <path class="fil2" d="M332.89 657.62l-0.23 0 -62.75 -18.29c-0.34,-0.1 -0.58,-0.42 -0.58,-0.78 0,-0.08 0.01,-0.15 0.03,-0.23 0.09,-0.35 0.41,-0.59 0.77,-0.59 0.08,0 0.16,0.01 0.24,0.04l62.74 18.26c0.4,0.06 0.71,0.4 0.71,0.81 0,0.45 -0.37,0.82 -0.82,0.82 -0.04,0 -0.08,-0 -0.11,-0.01l0.02 -0.03z"/>
    <path class="fil2" d="M262.74 637.19l-0.23 0 -10.76 -3.14c-0.36,-0.1 -0.61,-0.43 -0.61,-0.81 0,-0.46 0.38,-0.84 0.84,-0.84 0.08,0 0.15,0.01 0.23,0.03l10.76 3.14c0.35,0.1 0.58,0.42 0.58,0.78 0,0.08 -0.01,0.15 -0.03,0.23 -0.09,0.36 -0.41,0.61 -0.78,0.62l0 0z"/>
    <path class="fil2" d="M277.21 125.75c0,0 -32.65,-7.5 -38.89,0.89 -6.24,8.39 6.19,16.33 4.42,18.1 -1.77,1.77 -39.73,21.18 -36.65,40.17 3.08,18.99 28.7,38.4 29.59,43.75 0.89,5.35 -29.59,7.06 -33.56,15 -3.97,7.94 -9.72,45.47 23.4,57.83 33.12,12.36 74.53,-8.39 86.07,-8.39 11.54,0 22.96,22.52 36.2,21.19 8.06,-0.92 15.48,-4.87 20.75,-11.03 5.27,-6.17 13.68,18.99 33.54,11.03 19.86,-7.96 42.82,-35.76 33.12,-44.14 -9.71,-8.38 -20.76,-11.03 -13.69,-18.54 7.06,-7.5 21.63,-27.37 19.44,-44.59 -2.19,-17.22 -22.52,-18.54 -30.46,-23.83 -7.94,-5.3 8.83,-14.13 8.39,-28.7 -0.44,-14.57 -11.05,-38.89 -64.89,-55.09 -53.84,-16.2 -80.33,-8.39 -82.99,5.3 -0.36,1.61 -0.54,3.26 -0.54,4.91 0,6.06 2.43,11.88 6.74,16.14l-0 -0z"/>
    <path class="fil2" d="M392.5 316.98c-12.62,0 -21.53,-9.61 -23.92,-12.49 -5.36,5.94 -12.71,9.73 -20.66,10.63 -7.37,0.75 -14.05,-5.4 -20.48,-11.34 -5.51,-5.09 -10.73,-9.88 -15.8,-9.88 -3.09,0 -8.65,1.62 -15.68,3.69 -18.55,5.43 -46.6,13.63 -70.66,4.65 -11.5,-4.29 -19.44,-11.93 -23.72,-22.68 -5.67,-14.45 -2.88,-30.79 -0.13,-36.26 2.27,-4.52 11.93,-7.05 20.45,-9.27 5.95,-1.62 13.33,-3.48 12.96,-5.25 -0.37,-1.77 -3.66,-5.27 -7.6,-9.51 -7.92,-8.57 -19.91,-21.52 -21.97,-34.19 -2.71,-16.61 23.9,-32.88 33.93,-39 1.39,-0.86 2.72,-1.62 2.93,-1.88 -0.52,-0.89 -1.12,-1.74 -1.78,-2.53 -2.69,-3.5 -7.19,-9.38 -2.71,-15.47 5.44,-7.39 29.16,-3.24 37.14,-1.73 -3.32,-4.19 -5.13,-9.4 -5.13,-14.75 0,-1.76 0.2,-3.51 0.58,-5.23 0.98,-4.21 3.73,-7.81 7.55,-9.85 13.5,-8.1 41.38,-6.71 76.46,3.94 56,16.98 65.05,42.32 65.47,55.93 0.21,7.32 -3.71,13.17 -6.87,17.82 -2.15,3.24 -4,5.96 -3.61,7.96 0.25,0.94 0.88,1.74 1.73,2.2 2.7,1.56 5.57,2.84 8.54,3.79 9.19,3.4 20.61,7.65 22.26,20.63 2.17,16.93 -11.34,36.41 -19.64,45.24 -1.23,1.02 -1.96,2.54 -1.99,4.15 0.26,2.37 3.45,4.52 7.5,7.23 2.81,1.83 5.53,3.84 8.1,5.99 1.7,1.61 2.66,3.85 2.66,6.19 0,0.7 -0.09,1.41 -0.26,2.09 -2.04,12.18 -20.08,30.96 -35.73,37.27 -3.16,1.27 -6.53,1.93 -9.93,1.93zm-23.9 -14.58l0 0c0.25,0 0.49,0.13 0.63,0.34 0.15,0.18 13.56,18.37 32.6,10.76 15.23,-6.09 32.76,-24.3 34.72,-35.99 0.5,-3.01 -0.11,-5.3 -1.85,-6.79 -2.52,-2.09 -5.2,-4.06 -7.96,-5.84 -4.39,-2.95 -7.86,-5.28 -8.21,-8.38 0,-0.03 0,-0.07 0,-0.11 0,-2.05 0.89,-4.01 2.45,-5.35 7.55,-8.1 21.31,-27.54 19.2,-43.93 -1.54,-11.99 -12.46,-16.04 -21.23,-19.3 -3.08,-0.99 -6.07,-2.33 -8.88,-3.95 -1.21,-0.71 -2.09,-1.88 -2.42,-3.24 -0.52,-2.64 1.41,-5.52 3.86,-9.17 3.03,-4.5 6.79,-10.11 6.59,-16.92 -0.4,-13.17 -9.28,-37.74 -64.32,-54.42 -34.64,-10.52 -62.04,-12.01 -75.15,-4.1 -3.42,1.81 -5.9,5 -6.8,8.77 -0.36,1.58 -0.54,3.21 -0.54,4.83 0,5.84 2.32,11.45 6.45,15.59 0.18,0.16 0.28,0.39 0.28,0.62 0,0.13 -0.03,0.25 -0.08,0.36 -0.14,0.27 -0.42,0.44 -0.72,0.44 -0.06,0 -0.12,-0.01 -0.19,-0.02 -8.94,-2.06 -33.2,-5.95 -38.01,0.57 -3.76,5.12 0,9.98 2.69,13.55 1.62,2.06 2.74,3.56 1.62,4.65 -1.03,0.79 -2.11,1.5 -3.24,2.12 -8.83,5.4 -35.65,21.81 -33.17,37.35 1.98,12.18 13.76,24.92 21.57,33.34 4.62,4.99 7.66,8.28 8,10.35 0.53,3.24 -5.65,4.86 -14.21,7.08 -7.79,2.03 -17.48,4.55 -19.44,8.43 -2.56,5.12 -5.25,21.14 0.18,34.93 4,10.26 12.35,18.23 22.78,21.76 23.56,8.8 51.28,0.68 69.67,-4.68 7.16,-2.09 12.8,-3.76 16.2,-3.76 5.7,0 11.15,5.01 16.9,10.31 6.17,5.69 12.56,11.55 19.22,10.89 7.83,-0.92 15.05,-4.75 20.19,-10.73 0.14,-0.21 0.37,-0.35 0.62,-0.37z"/>
    <path class="fil4" d="M283.09 267.38c0,0 -11.03,68.86 -11.47,71.07 -0.44,2.2 19.44,22.07 46.34,18.54 15.75,-1.89 30.24,-9.61 40.61,-21.62l-8.38 -68.42c0,0 -22.96,11.03 -37.09,10.6 -14.13,-0.44 -30.01,-10.16 -30.01,-10.16z"/>
    <path class="fil2" d="M311.61 358.21c-14.45,-0.23 -28.27,-6.05 -38.55,-16.2 -2.48,-2.64 -2.3,-3.48 -2.24,-3.81 0.42,-2.15 11.34,-70.34 11.46,-71.03 0.07,-0.39 0.42,-0.68 0.82,-0.68 0.15,0 0.29,0.04 0.42,0.11 0.16,0.1 15.88,9.61 29.62,10.05 13.74,0.44 36.47,-10.4 36.7,-10.52 0.11,-0.06 0.24,-0.09 0.37,-0.09 0.13,0 0.26,0.03 0.37,0.09 0.22,0.13 0.37,0.36 0.4,0.62l8.39 68.41c0,0.03 0.01,0.07 0.01,0.1 0,0.18 -0.06,0.35 -0.17,0.49 -10.53,12.13 -25.2,19.96 -41.14,21.94 -2.13,0.31 -4.31,0.49 -6.46,0.52l0 0zm-27.9 -89.54c-1.51,9.38 -10.89,67.87 -11.34,69.93 0.34,2.01 19.17,21.06 45.37,17.58 15.4,-1.94 29.58,-9.44 39.86,-21.06l-8.07 -67c-4.67,2.15 -23.8,10.6 -36.44,10.21 -12.27,-0.37 -25.6,-7.49 -29.38,-9.66z"/>
    <polygon class="fil2" points="278.56,304.32 325.04,295.33 283.09,267.38 "/>
    <path class="fil2" d="M278.56 305.13c-0.2,-0.01 -0.4,-0.08 -0.55,-0.21 -0.16,-0.16 -0.25,-0.37 -0.25,-0.6 0,-0.03 0,-0.07 0.01,-0.1l4.52 -36.94c0.03,-0.28 0.21,-0.52 0.47,-0.63 0.12,-0.06 0.26,-0.1 0.4,-0.1 0.14,0 0.27,0.03 0.4,0.1l41.93 27.97c0.23,0.15 0.37,0.4 0.37,0.67 0,0.05 -0,0.1 -0.01,0.15 -0.07,0.32 -0.32,0.57 -0.65,0.63l-46.47 8.99 -0.16 0.06zm5.19 -36.34l-4.25 34.53 43.44 -8.41 -39.19 -26.12z"/>
    <path class="fil4" d="M258.56 206.67c0,0 -7.78,-9.85 -11.34,2.59 -3.56,12.44 11.93,27.54 11.93,27.54l-0.58 -30.14z"/>
    <path class="fil2" d="M259.08 237.55c-0.19,-0.01 -0.37,-0.08 -0.52,-0.21 -0.65,-0.63 -15.86,-15.52 -12.14,-28.29 1.18,-4.05 2.97,-6.34 5.3,-6.79 3.79,-0.73 7.37,3.73 7.52,3.92 0.11,0.14 0.18,0.31 0.18,0.49l0.52 30.07c-0,0.33 -0.19,0.62 -0.49,0.76 -0.11,0.03 -0.23,0.05 -0.35,0.05 -0.01,0 -0.02,0 -0.02,0l-0 0zm-6.48 -33.77c-0.09,-0.01 -0.18,-0.01 -0.28,-0.01 -0.09,0 -0.18,0 -0.28,0.01 -1.62,0.32 -3.06,2.28 -4.05,5.65 -2.8,9.62 6.61,21.16 10.31,25.2l-0.49 -27.72c-0.99,-1.04 -3.22,-3.13 -5.28,-3.13l0.07 0z"/>
    <path class="fil4" d="M369.99 206.67c0,0 7.78,-9.85 11.34,2.59 3.56,12.44 -11.92,27.54 -11.92,27.54l0.58 -30.14z"/>
    <path class="fil2" d="M369.47 237.55c-0.05,0.01 -0.11,0.01 -0.16,0.01 -0.05,0 -0.11,-0 -0.16,-0.01 -0.29,-0.12 -0.49,-0.41 -0.49,-0.73 0,-0.01 0,-0.02 0,-0.03l0.52 -30.07c0,-0.17 0.06,-0.34 0.16,-0.49 0.16,-0.19 3.76,-4.67 7.52,-3.92 2.35,0.45 4.13,2.74 5.31,6.79 3.71,12.77 -11.5,27.66 -12.15,28.29 -0.14,0.11 -0.31,0.16 -0.48,0.16 -0.02,0 -0.04,-0 -0.07,-0l0 0zm1.31 -30.59l-0.42 27.72c3.68,-4.03 13.11,-15.57 10.31,-25.2 -0.99,-3.37 -2.4,-5.33 -4.07,-5.65 -2.24,-0.42 -4.8,1.94 -5.82,3.13z"/>
    <path class="fil4" d="M283 144.42c0,0 -22.26,21.63 -25.49,28.11 -3.22,6.48 -1.93,80.33 1.62,87.49 3.55,7.16 39.03,34.85 44.83,37.1 5.8,2.25 19.04,4.52 29.36,-0.65 10.32,-5.17 35.16,-31.61 37.75,-38.38 2.59,-6.77 -0.65,-84.25 -2.27,-91.63 -1.62,-7.37 -40.57,-33.99 -57.1,-35.27 -16.53,-1.28 -28.71,13.22 -28.71,13.22z"/>
    <path class="fil2" d="M318.51 300.31c-0.07,0 -0.16,0 -0.23,0 -4.99,0 -9.95,-0.85 -14.66,-2.53 -6.24,-2.43 -41.67,-30.32 -45.27,-37.49 -3.6,-7.18 -4.99,-81.42 -1.62,-88.16 3.24,-6.48 24.3,-27.04 25.62,-28.26 0.81,-0.96 12.96,-14.78 29.38,-13.48 16.02,1.26 56.01,27.42 57.83,35.79 1.51,6.97 4.86,85.15 2.22,92.1 -2.77,7.29 -27.92,33.72 -38.14,38.89 -4.48,2.07 -9.37,3.15 -14.31,3.15 -0.27,0 -0.55,-0 -0.81,-0.01l0 -0zm-8.91 -168.38c-14.84,0 -25.92,12.88 -26.04,12.96l0 0c-0.23,0.21 -22.2,21.6 -25.32,27.85 -3.13,6.25 -1.75,79.98 1.62,86.7 3.37,6.72 38.5,34.4 44.41,36.7 6.22,2.41 18.99,4.24 28.71,-0.62 10.42,-5.2 34.97,-31.69 37.35,-37.95 2.61,-6.84 -0.79,-84.25 -2.3,-91.16 -1.51,-6.9 -40.12,-33.15 -56.39,-34.4 -0.66,0 -1.33,-0.1 -1.99,-0.1l-0.05 0zm-26.65 12.49l0 0z"/>
    <path class="fil2" d="M300.5 131.2c0,0 33.34,30.43 57.33,31.6l24 1.17c0,0 -52.66,-7.02 -69.04,-42.69 -0,0 -18.13,-15.17 -12.28,9.93z"/>
    <path class="fil2" d="M381.82 164.77l0 0 -23.98 -1.17c-24,-1.17 -56.47,-30.54 -57.84,-31.81 -0.12,-0.11 -0.2,-0.25 -0.24,-0.4 -1.93,-8.3 -1.51,-13.16 1.3,-14.87 4.15,-2.54 11.49,3.43 12.3,4.12 0.1,0.08 0.17,0.18 0.23,0.29 16.01,34.87 67.87,42.13 68.39,42.24 0.41,0.05 0.72,0.39 0.72,0.8 0,0.02 -0,0.05 -0,0.07 -0.05,0.42 -0.4,0.73 -0.82,0.73 -0.01,0 -0.03,-0 -0.04,-0zm-80.59 -34.03c2.72,2.43 34.14,30.11 56.71,31.21l13.55 0.66c-16.2,-4.08 -47.33,-15.05 -59.29,-40.88 -2.11,-1.73 -7.66,-5.48 -10.29,-3.87 -1.49,0.91 -2.74,3.86 -0.68,12.91l0 -0.03z"/>
    <path class="fil2" d="M321.75 224.91c0,0 -0,0 -0,0 -0.42,0 -0.77,-0.32 -0.81,-0.75l-2.58 -32.58c-0,-0.02 -0,-0.04 -0,-0.06 0,-0.45 0.36,-0.81 0.81,-0.81 0.42,0 0.78,0.33 0.81,0.75l2.58 32.58c0,0.02 0,0.04 0,0.07 0,0.42 -0.33,0.78 -0.75,0.81l-0.07 0z"/>
    <path class="fil2" d="M314.29 240.4c-4.5,0 -8.81,-4.86 -8.99,-5.12 -0.15,-0.15 -0.23,-0.35 -0.23,-0.56 0,-0.45 0.36,-0.81 0.81,-0.81 0.24,0 0.48,0.11 0.63,0.3 0.15,0.19 4.02,4.57 7.78,4.57 3.09,0 7.78,-6.03 9.33,-8.34 0.15,-0.23 0.4,-0.37 0.67,-0.37 0.16,0 0.32,0.05 0.45,0.14 0.23,0.15 0.36,0.4 0.36,0.67 0,0.16 -0.05,0.31 -0.13,0.45 -0.62,0.92 -6.17,9.07 -10.68,9.07z"/>
    <path class="fil2" d="M309.16 255.34c-0.99,0 -1.99,0 -3,-0.1 -9.98,-0.66 -17.42,-12.78 -17.74,-13.3 -0.08,-0.13 -0.12,-0.27 -0.12,-0.42 0,-0.45 0.36,-0.81 0.81,-0.81 0.29,0 0.55,0.15 0.7,0.39 0,0.13 7.32,11.91 16.46,12.52 0.76,0.02 1.54,0.04 2.3,0.04 5.88,0 11.74,-0.77 17.42,-2.28 0.08,-0.02 0.15,-0.03 0.23,-0.03 0.46,0 0.84,0.38 0.84,0.84 0,0.38 -0.25,0.71 -0.61,0.81 -5.64,1.47 -11.46,2.26 -17.29,2.33l-0 0z"/>
    <path class="fil2" d="M323 186.37c0,0 11.34,-8.39 15.8,-11.34 4.46,-2.95 19.04,2.58 19.04,2.58 0,0 -10.97,-6.12 -16.77,-7.1 -5.8,-0.97 -17.74,7.42 -18.71,11.34 -0.97,3.92 -3.84,2.9 0.65,4.52z"/>
    <path class="fil2" d="M323 187.11c-0.04,0.01 -0.09,0.01 -0.14,0.01 -0.05,0 -0.09,-0 -0.14,-0.01 -2.14,-0.76 -2.77,-0.99 -2.96,-1.62 -0.01,-0.07 -0.01,-0.14 -0.01,-0.21 0,-0.44 0.2,-0.86 0.53,-1.15 0.63,-0.68 1.08,-1.51 1.3,-2.41 1.05,-4.23 13.29,-12.96 19.62,-11.89 5.88,0.97 16.59,6.93 17.04,7.18 0.25,0.15 0.41,0.42 0.41,0.72 0,0.12 -0.02,0.23 -0.07,0.34 -0.13,0.29 -0.42,0.47 -0.74,0.47 -0.1,0 -0.19,-0.02 -0.28,-0.05 -3.94,-1.49 -14.89,-4.86 -18.31,-2.66 -4.46,2.85 -15.65,11.18 -15.77,11.26 -0.1,0.03 -0.2,0.05 -0.3,0.05 -0.06,0 -0.12,-0.01 -0.18,-0.02l-0 0zm-1.38 -2.19l1.25 0.47c1.93,-1.44 11.46,-8.47 15.49,-11.07 2.32,-1.49 6.74,-1.05 10.82,-0.16 -2.63,-1.27 -5.4,-2.25 -8.25,-2.88 -5.36,-0.88 -16.93,7.26 -17.82,10.69 -0.23,1.11 -0.74,2.15 -1.49,3.01l-0 -0.06z"/>
    <path class="fil2" d="M299.77 187.91c-1.21,-2.87 -3.98,-4.77 -7.1,-4.86 -5.48,-0.32 -29.68,6.14 -25.49,6.14 4.2,0 21.61,-0.32 26.13,-0.32 0.32,0.02 0.65,0.03 0.97,0.03 1.87,0 3.73,-0.33 5.48,-0.99l0 -0z"/>
    <path class="fil2" d="M267.18 190.01c-0.06,0.01 -0.11,0.01 -0.17,0.01 -0.4,0 -0.78,-0.2 -1.01,-0.53 -0.08,-0.14 -0.11,-0.29 -0.11,-0.45 0,-0.16 0.04,-0.31 0.11,-0.45 0.99,-1.62 22.2,-6.63 26.69,-6.35 3.44,0.09 6.5,2.2 7.81,5.38 0.03,0.09 0.05,0.18 0.05,0.28 0,0.3 -0.17,0.58 -0.44,0.73 -1.89,0.71 -3.91,1.08 -5.93,1.08 -0.3,0 -0.6,-0.01 -0.89,-0.02 -2.3,0 -7.94,0 -13.48,0.16 -5.54,0.16 -10.56,0.16 -12.62,0.16zm25.02 -6.14c-4.08,0 -15.46,2.74 -21.34,4.49l8.96 -0.13c5.54,-0.08 11.2,-0.16 13.5,-0.16 0.14,0 0.29,0.01 0.43,0.01 1.65,0 3.3,-0.21 4.9,-0.62 -1.25,-2.17 -3.55,-3.53 -6.06,-3.58l-0.39 -0z"/>
    <path class="fil2" d="M355.26 206.36c-4.74,1.07 -9.61,1.62 -14.48,1.62 -0.12,0 -0.24,0 -0.36,0 -6.48,-0.32 -12.27,-2.27 -9.72,0.63 2.54,2.9 7.74,5.49 15.8,3.87 8.05,-1.62 11.02,-3.23 8.76,-6.13z"/>
    <path class="fil2" d="M296.87 206.36c-4.74,1.07 -9.61,1.62 -14.48,1.62 -0.12,0 -0.24,0 -0.36,0 -6.48,-0.32 -12.25,-2.27 -9.72,0.63 2.53,2.9 7.74,5.49 15.81,3.87 8.07,-1.62 10.95,-3.23 8.75,-6.13z"/>
    <path class="fil4" d="M189.51 392.3c0,0 9.72,-53.47 14.13,-58.7 4.41,-5.23 52.53,-44.59 55.17,-47.23 2.64,-2.64 21.63,-31.35 22.52,-27.82 0.89,3.53 -2.2,18.99 -7.96,27.37 -5.75,8.38 -13.68,18.55 -13.68,18.55 0,0 29.65,7.5 31.27,9.27 1.62,1.77 11.83,23.74 12.36,26.48 0.94,4.73 -0.42,9.8 -4.41,10.16 -3.63,0.31 -27.37,-11.93 -27.37,-11.93l-18.92 2.59c0,0 -13.68,16.77 -22.96,19.86 -4.16,1.52 -8.45,2.71 -12.8,3.53l0.45 32.66 -27.82 -4.8z"/>
    <path class="fil2" d="M217.33 397.97l-0.15 0 -27.8 -4.86c-0.22,-0.04 -0.41,-0.16 -0.53,-0.34 -0.09,-0.14 -0.14,-0.3 -0.14,-0.47 0,-0.04 0,-0.09 0.01,-0.13 0.4,-2.19 9.8,-53.68 14.31,-59.08 2.95,-3.55 24.43,-21.47 40.12,-34.54 7.94,-6.63 14.23,-11.86 15.1,-12.75 0.88,-0.89 3.35,-4.36 6.32,-8.49 11.54,-16.07 14.95,-20.16 16.66,-19.83 0.45,0.09 0.8,0.44 0.89,0.89 0.96,3.82 -2.24,19.52 -8.1,28.03 -4.67,6.79 -10.82,14.84 -12.96,17.6 6.9,1.77 28.81,7.47 30.53,9.17 1.72,1.7 12.01,24.03 12.57,26.91 0.23,0.93 0.35,1.89 0.35,2.86 0,2.17 -0.6,4.29 -1.73,6.13 -0.89,1.21 -2.26,1.99 -3.76,2.12 -3.69,0.32 -24.3,-10.18 -27.54,-11.89l-18.41 2.54c-1.8,2.19 -14.24,16.93 -23.12,19.88 -3.99,1.4 -8.1,2.58 -12.24,3.45l0.44 31.97c0,0.24 -0.11,0.47 -0.29,0.63 -0.15,0.12 -0.33,0.19 -0.52,0.19l-0 0zm-26.82 -6.33l25.92 4.49 -0.44 -31.69c0,-0.41 0.31,-0.75 0.71,-0.81 4.3,-0.82 8.55,-2 12.65,-3.5 8.93,-2.98 22.44,-19.44 22.57,-19.61 0.13,-0.16 0.32,-0.26 0.52,-0.29l19.07 -2.58c0.04,-0.01 0.09,-0.01 0.13,-0.01 0.12,0 0.24,0.03 0.34,0.09 9.11,4.68 24.5,12.07 26.93,11.83 1.04,-0.09 2,-0.64 2.61,-1.49 0.92,-1.56 1.41,-3.34 1.41,-5.15 0,-0.86 -0.11,-1.71 -0.33,-2.54 -0.58,-2.92 -10.68,-24.61 -12.14,-26.07 -1.38,-1.22 -19.74,-6.21 -30.96,-9.06 -0.36,-0.09 -0.61,-0.42 -0.61,-0.78 0,-0.18 0.06,-0.35 0.17,-0.5 0,-0.11 7.99,-10.24 13.64,-18.5 5.65,-8.26 8.31,-22.15 7.92,-26.17 -2.46,1.81 -10.37,12.85 -14.76,18.96 -3.13,4.36 -5.59,7.79 -6.48,8.69 -0.89,0.89 -6.93,5.93 -15.21,12.85 -14.76,12.3 -37.06,30.9 -39.92,34.33 -3.45,4.13 -11,42.16 -13.76,57.52z"/>
    <path class="fil2" d="M303.4 341.04c-0.01,0 -0.01,0 -0.02,0 -0.26,0 -0.51,-0.13 -0.65,-0.36 -5.14,-7.57 -13.69,-19.91 -14.78,-20.77 -1.09,-0.86 -14.78,-2.92 -26.95,-4.55 -0.4,-0.06 -0.7,-0.4 -0.7,-0.81 0,-0.45 0.37,-0.82 0.82,-0.82 0.04,0 0.08,0 0.11,0.01 6.09,0.83 26.12,3.6 27.74,4.86 1.62,1.26 13.72,19.1 15.08,21.06 0.09,0.13 0.15,0.3 0.15,0.46 0,0.27 -0.13,0.52 -0.36,0.67 -0.12,0.12 -0.28,0.21 -0.45,0.24l-0 0z"/>
    <path class="fil2" d="M302.31 347.73c0,-0 0,-0 0,-0 -0.24,0 -0.46,-0.11 -0.61,-0.29 -3.47,-4 -10.4,-11.89 -11.84,-13.11 -1.17,-0.94 -14.84,-4.44 -27.14,-7.26 -0.36,-0.09 -0.62,-0.41 -0.62,-0.79 0,-0.06 0.01,-0.12 0.02,-0.18 0.08,-0.36 0.4,-0.62 0.78,-0.62 0.07,0 0.13,0.01 0.2,0.02 4.29,0.97 25.92,5.98 27.8,7.6 1.88,1.62 11.62,12.8 12.04,13.29 0.13,0.14 0.2,0.33 0.2,0.53 0,0.23 -0.1,0.46 -0.28,0.61 -0.14,0.13 -0.33,0.21 -0.53,0.21 -0,0 -0,0 -0,0l-0 0z"/>
    <path class="fil4" d="M302.83 551.41c0,0 -34.67,-6.48 -36.05,-6.93 -1.38,-0.45 -25.92,-7.86 -29.16,-9.25 -3.24,-1.39 -42.53,-8.31 -44.38,-5.54 -1.85,2.77 -3.69,18.96 -4.16,20.33 -0.47,1.38 -4.16,7.86 -3.24,11.57 0.25,1.68 0.37,3.38 0.37,5.08 0,1.7 -0.13,3.4 -0.37,5.08 -0.25,1.68 -0.47,21.73 5.07,22.2 5.54,0.47 10.65,-20.35 10.65,-20.35 0,0 7.86,4.63 24.03,5.56 16.17,0.92 31.9,-6.93 31.9,-6.93l43.03 10.24 2.32 -31.04z"/>
    <path class="fil2" d="M191.13 594.76l-0.24 0c-6,-0.5 -5.9,-19.27 -5.83,-23.02 0.24,-1.64 0.37,-3.31 0.37,-4.97 0,-1.66 -0.12,-3.33 -0.37,-4.97 -0.81,-3.24 1.44,-8.1 2.66,-10.65 0.28,-0.62 0.5,-1.1 0.6,-1.36 0.1,-0.26 0.4,-2.25 0.7,-4.26 1.13,-7.47 2.25,-14.34 3.55,-16.28 2.43,-3.63 43,4.23 45.37,5.25 2.37,1.02 17.58,5.7 24.85,7.94l4.2 1.28c1.05,0.34 22.08,4.33 35.95,6.92 0.39,0.07 0.67,0.41 0.67,0.8 0,0.02 -0,0.04 -0,0.06l-2.27 30.98c-0.01,0.24 -0.13,0.46 -0.32,0.6 -0.13,0.1 -0.3,0.16 -0.46,0.16 -0.07,0 -0.14,-0.01 -0.2,-0.03l-42.71 -10.09c-2.17,1.02 -16.98,7.74 -32.05,6.89 -13.22,-0.76 -20.9,-3.92 -23.45,-5.17 -1.3,5.01 -5.61,19.95 -11,19.95zm5.44 -64.94c-0.19,-0.02 -0.39,-0.03 -0.58,-0.03 -0.72,0 -1.43,0.14 -2.09,0.4 -1.17,1.75 -2.53,10.74 -3.24,15.57 -0.4,2.74 -0.62,4.07 -0.76,4.52 -0.15,0.45 -0.36,0.84 -0.68,1.54 -1.04,2.24 -3.24,6.92 -2.54,9.58 0.26,1.73 0.39,3.48 0.39,5.23 0,1.75 -0.13,3.5 -0.39,5.23 -0.18,8.62 1.05,21.06 4.36,21.27 3.56,0.23 7.87,-11.94 9.72,-19.72 0.06,-0.25 0.24,-0.45 0.47,-0.57 0.11,-0.06 0.24,-0.08 0.36,-0.08 0.13,0 0.25,0.03 0.36,0.08 0.11,0.06 7.92,4.54 23.67,5.44 15.75,0.91 31.34,-6.77 31.5,-6.85 0.09,-0.03 0.18,-0.04 0.27,-0.04 0.09,0 0.18,0.01 0.27,0.04l42.13 9.95 2.19 -29.29c-5.83,-1.09 -34.12,-6.38 -35.45,-6.84l-4.16 -1.28c-7.87,-2.41 -22.51,-6.9 -25.03,-7.99 -3.16,-1.38 -31.61,-6.17 -40.75,-6.17z"/>
    <path class="fil0" d="M182.91 382.87l46.48 8.51 -1.73 29.05c0,0 10.29,4.86 13.42,33.56 3.13,28.69 12.09,95.16 9.85,100.08 -2.24,4.93 -16.11,26.41 -48.33,27.76 -32.23,1.34 -49.68,-28.19 -52.8,-37.61 -3.13,-9.41 13.43,-70.98 14.32,-76.35 0.89,-5.36 5.36,-42.13 9.4,-48.33 2.48,-3.83 5.5,-7.3 8.94,-10.3l0.45 -26.36z"/>
    <path class="fil2" d="M200.46 582.7c-32.07,0 -48.61,-29.96 -51.43,-38.19 -2.53,-7.57 6.84,-45.89 11.86,-66.43 1.3,-5.31 2.24,-9.15 2.43,-10.29 0.19,-1.13 0.42,-2.83 0.78,-5.36 1.72,-12.31 5.31,-37.95 8.73,-43.26 2.46,-3.8 5.44,-7.25 8.83,-10.24l0.44 -26.04c0,-0 0,-0 0,-0 0,-0.24 0.11,-0.46 0.29,-0.62 0.14,-0.11 0.33,-0.18 0.51,-0.18 0.05,0 0.1,0 0.15,0.01l46.53 8.49c0.39,0.07 0.67,0.4 0.67,0.8 0,0.02 -0,0.04 -0,0.06l-1.75 28.58c2.15,1.39 10.6,8.38 13.38,33.93 0.78,7.16 1.94,16.82 3.24,27.04 4.75,39.41 8.25,69.85 6.61,73.46 -0.13,0.26 -12.56,26.7 -49.05,28.21l-2.24 0.02zm-16.75 -198.86l-0.44 25.44c0,-0 0,0 0,0 0,0.24 -0.11,0.46 -0.29,0.61 -3.37,2.94 -6.34,6.36 -8.78,10.11 -3.24,5.01 -6.92,31.37 -8.49,42.61 -0.36,2.54 -0.63,4.46 -0.79,5.41 -0.19,1.2 -1.13,5.06 -2.45,10.39 -4.63,18.97 -14.27,58.44 -11.89,65.59 2.72,8.1 19.52,38.4 51.99,37.02 29.46,-1.21 44.36,-20.09 47.64,-27.27 1.62,-3.48 -3.24,-43.42 -6.74,-72.59 -1.23,-10.24 -2.4,-19.9 -3.24,-27.06 -3.05,-27.87 -12.88,-32.88 -12.96,-32.92 -0.28,-0.14 -0.45,-0.43 -0.45,-0.74 0,-0.01 0,-0.03 0,-0.04l1.75 -28.37 -44.85 -8.2zm-1.3 25.42l0 0z"/>
    <path class="fil2" d="M219.68 417.69c-2.63,-0.01 -5.27,-0.19 -7.87,-0.5 -0.41,-0.05 -0.72,-0.39 -0.72,-0.8 0,-0.03 0,-0.06 0,-0.09 0.05,-0.41 0.4,-0.72 0.82,-0.72 0.03,0 0.06,0 0.09,0 2.54,0.31 5.12,0.48 7.68,0.49 0.45,-0 0.81,0.36 0.81,0.81 0,0.45 -0.36,0.81 -0.81,0.81l-0 0z"/>
    <path class="fil2" d="M200.96 415.33l-0.18 0c-6.28,-1.39 -12.53,-3.19 -18.61,-5.28 -0.3,-0.12 -0.51,-0.42 -0.51,-0.75 0,-0.45 0.36,-0.81 0.81,-0.81 0.09,0 0.17,0.01 0.25,0.04 6.02,2.09 12.18,3.85 18.39,5.22 0.37,0.08 0.63,0.41 0.63,0.79 0,0.06 -0.01,0.12 -0.02,0.18 -0.08,0.36 -0.4,0.62 -0.77,0.62 -0,0 -0,0 -0,0l-0 0z"/>
    <g>
     <path class="fil0" d="M438.74 397.47l-4.62 119.27c0,0 -5.09,0.47 -6.93,2.77 -1.23,1.59 -2.32,3.3 -3.24,5.08 -0.92,1.79 -46.68,1.85 -68.88,8.33 -12.72,3.61 -25.14,8.43 -36.98,14.32l-20.34 -0.44 -4.16 53.61 27.29 0.92c0,0 13.4,7.86 74.42,13.42 61.02,5.56 89.23,6.93 95.69,-0.47 6.46,-7.4 9.25,-18.96 10.18,-24.95 0.92,-6 12.02,-43 12.02,-96.63 0,-53.63 -50.39,-131.24 -61.49,-148.85 -11.1,-17.61 -22.68,-16.2 -30.51,-14.32l17.56 67.94zm0 0l0 0 0 0z"/>
    </g>
    <path class="fil2" d="M465.1 620.16c-15.47,0 -38.12,-1.72 -69.88,-4.6 -57.45,-5.23 -72.72,-12.43 -74.53,-13.42l-27.08 -0.92c-0,-0 -0,-0 -0.01,-0 -0.43,0 -0.78,-0.35 -0.78,-0.78 0,-0.03 0,-0.07 0.01,-0.1l4.1 -53.53c0.03,-0.42 0.37,-0.75 0.79,-0.75 0.01,0 0.02,0 0.03,0l20.14 0.45c11.8,-5.83 24.26,-10.68 36.93,-14.29 20.84,-6.08 63.64,-8.1 68.6,-8.34 0.9,-1.7 1.95,-3.34 3.12,-4.86 1.62,-2.03 5.25,-2.75 6.79,-2.98l4.59 -118.59c0,0 0,-0 0,-0 0,-0.43 0.35,-0.78 0.78,-0.78 0.02,0 0.04,0 0.07,0 0.43,0.02 0.78,0.37 0.78,0.81 0,0.01 0,0.02 -0,0.03l-4.62 119.27c-0.01,0.41 -0.33,0.74 -0.73,0.78 -1.33,0.11 -5.04,0.79 -6.38,2.46 -1.18,1.55 -2.24,3.21 -3.14,4.94 -0.13,0.27 -0.4,0.45 -0.7,0.45 -0.45,0 -46.84,1.91 -68.68,8.3 -12.64,3.62 -25.03,8.43 -36.82,14.26 -0.14,0.06 -0.28,0.1 -0.42,0.1l-19.57 -0.44 -4.03 52.01 26.43 0.89c0.14,0.01 0.27,0.05 0.39,0.11 0.13,0 14.16,7.86 74.1,13.3 60.76,5.53 88.89,6.81 95.01,-0.19 6.98,-7.97 9.4,-20.8 9.98,-24.55 0.15,-1.02 0.57,-2.77 1.18,-5.44 7.16,-29.82 10.82,-60.39 10.82,-91.06 0,-34.25 -20.24,-83.54 -60.13,-146.49l-1.23 -1.93c-11.52,-18.24 -23.77,-15.36 -29.63,-13.98 -0.06,0.02 -0.12,0.03 -0.19,0.03 -0.38,0 -0.71,-0.26 -0.8,-0.62 -0.01,-0.06 -0.02,-0.12 -0.02,-0.18 0,-0.38 0.26,-0.71 0.64,-0.79 9.51,-2.24 20.69,-2.24 31.38,14.68l1.22 1.94c40.07,63.19 60.39,112.79 60.39,147.35 0,30.76 -3.69,61.53 -10.83,91.44 -0.6,2.53 -1.02,4.36 -1.17,5.31 -0.6,3.86 -3.09,17.06 -10.37,25.37 -3.28,3.7 -11.53,5.32 -26.51,5.32z"/>
    <path class="fil2" d="M434.12 517.55c-0,-0 -0.01,-0 -0.01,-0 -0.28,0 -0.55,-0.16 -0.68,-0.41 -0.07,-0.12 -0.11,-0.27 -0.11,-0.41 0,-0.23 0.09,-0.44 0.26,-0.59l26.82 -24.95c0.15,-0.15 0.35,-0.24 0.57,-0.24 0.21,0 0.42,0.09 0.57,0.24 0.15,0.15 0.24,0.36 0.24,0.57 0,0.22 -0.09,0.42 -0.24,0.57l-24.3 22.68 25.1 -7.29c0.07,-0.02 0.15,-0.03 0.23,-0.03 0.46,0 0.84,0.38 0.84,0.84 0,0.38 -0.25,0.71 -0.61,0.81l-28.37 8.23 -0.27 -0.03z"/>
    <path class="fil2" d="M471.37 506.74c-0.03,0 -0.07,0.01 -0.11,0.01 -0.45,0 -0.82,-0.37 -0.82,-0.82 0,-0.41 0.3,-0.76 0.71,-0.81l8.96 -2.59c0.08,-0.02 0.16,-0.04 0.24,-0.04 0.36,0 0.67,0.24 0.77,0.59 0.02,0.07 0.03,0.15 0.03,0.23 0,0.36 -0.24,0.68 -0.58,0.78l-8.98 2.59c-0.07,0.04 -0.15,0.06 -0.23,0.07l0 0z"/>
    <path class="fil2" d="M465.55 532.34l-0.29 0c-11.76,-4.54 -41.07,-6.87 -41.38,-6.89 -0.42,-0.03 -0.75,-0.39 -0.75,-0.81 0,-0.45 0.36,-0.81 0.81,-0.81 0.02,0 0.04,0 0.06,0 1.22,0.1 29.85,2.38 41.84,6.98 0.39,0.07 0.68,0.41 0.68,0.81 0,0.45 -0.37,0.82 -0.82,0.82 -0.05,0 -0.1,-0 -0.15,-0.01l0 -0.1z"/>
    <path class="fil2" d="M473.88 556.39c-0.25,-0 -0.49,-0.12 -0.65,-0.32 -1.22,-1.62 -2.54,-3.09 -3.95,-4.57 -0.12,-0.15 -0.19,-0.33 -0.19,-0.52 0,-0.45 0.36,-0.81 0.81,-0.81 0.2,0 0.39,0.07 0.54,0.21 1.43,1.49 2.8,3.07 4.07,4.7 0.11,0.14 0.17,0.32 0.17,0.5 0,0.25 -0.11,0.48 -0.3,0.63 -0.14,0.11 -0.32,0.17 -0.5,0.18l-0 0z"/>
    <path class="fil2" d="M464.21 546.52c-0.19,-0 -0.37,-0.07 -0.52,-0.18 -8.21,-6.65 -17.74,-11.6 -27.9,-14.49 -0.38,-0.08 -0.64,-0.42 -0.64,-0.81 0,-0.46 0.37,-0.83 0.83,-0.83 0.06,0 0.13,0.01 0.19,0.02 10.42,2.93 20.15,7.98 28.56,14.79 0.19,0.15 0.3,0.39 0.3,0.63 0,0.45 -0.36,0.81 -0.81,0.81 -0,0 -0.01,0 -0.01,0l0 0.05z"/>
    <path class="fil2" d="M318.09 598c-0.45,-0 -0.81,-0.36 -0.81,-0.81l-0.39 -44.83c0,-0.01 0,-0.01 0,-0.02 0,-0.44 0.35,-0.8 0.79,-0.81l-0 0c0.45,-0 0.81,0.36 0.81,0.81l0.47 44.83c0,0 0,0 0,0 0,0.45 -0.36,0.82 -0.81,0.83l-0.07 0z"/>
    <path class="fil2" d="M314.85 586.9l-19.44 0c-0.45,-0 -0.81,-0.36 -0.81,-0.81 0,-0.45 0.36,-0.81 0.81,-0.81l19.44 0c0.45,-0 0.81,0.36 0.81,0.81 -0.01,0.44 -0.37,0.8 -0.81,0.81l-0 0z"/>
    <path class="fil2" d="M300.06 560.54c0,-0 0,-0 -0,-0 -0.43,0 -0.78,-0.33 -0.81,-0.76 -0,-0.02 -0,-0.03 -0,-0.05 0,-0.43 0.34,-0.78 0.76,-0.79l7.86 -0.47c0.02,-0 0.03,-0 0.05,-0 0.43,0 0.78,0.34 0.81,0.76 0,0.01 0,0.02 0,0.03 0,0.43 -0.33,0.79 -0.76,0.82l-7.86 0.45 -0.05 0z"/>
   </g>
  </g>
 </g>
</svg>
