<?xml version="1.0" encoding="UTF-8"?>
<!DOCTYPE svg PUBLIC "-//W3C//DTD SVG 1.1//EN" "http://www.w3.org/Graphics/SVG/1.1/DTD/svg11.dtd">
<!-- Creator: CorelDRAW -->
<svg xmlns="http://www.w3.org/2000/svg" xml:space="preserve" width="145.61mm" height="131.813mm" version="1.1" style="shape-rendering:geometricPrecision; text-rendering:geometricPrecision; image-rendering:optimizeQuality; fill-rule:evenodd; clip-rule:evenodd"
viewBox="0 0 672.48 608.76"
 xmlns:xlink="http://www.w3.org/1999/xlink"
 xmlns:xodm="http://www.corel.com/coreldraw/odm/2003">
 <defs>
  <style type="text/css">
   <![CDATA[
    .str3 {stroke:#407BFF;stroke-width:0.61;stroke-miterlimit:22.9256}
    .str6 {stroke:white;stroke-width:0.61;stroke-miterlimit:22.9256}
    .str1 {stroke:#263238;stroke-width:1.22;stroke-miterlimit:22.9256}
    .str2 {stroke:#407BFF;stroke-width:1.22;stroke-miterlimit:22.9256}
    .str4 {stroke:white;stroke-width:1.22;stroke-miterlimit:22.9256}
    .str5 {stroke:white;stroke-width:2.44;stroke-miterlimit:22.9256}
    .str7 {stroke:#373435;stroke-width:0.92;stroke-miterlimit:22.9256}
    .str0 {stroke:#263238;stroke-width:1.22;stroke-linecap:round;stroke-linejoin:round;stroke-miterlimit:22.9256}
    .fil3 {fill:none;fill-rule:nonzero}
    .fil11 {fill:#263238}
    .fil4 {fill:#263238;fill-rule:nonzero}
    .fil8 {fill:#407BFF;fill-rule:nonzero}
    .fil2 {fill:#D90077;fill-rule:nonzero}
    .fil6 {fill:#D90077;fill-rule:nonzero}
    .fil0 {fill:#FF008E;fill-rule:nonzero}
    .fil5 {fill:white;fill-rule:nonzero}
    .fil10 {fill:white;fill-rule:nonzero;fill-opacity:0.101961}
    .fil7 {fill:white;fill-rule:nonzero;fill-opacity:0.200000}
    .fil9 {fill:white;fill-rule:nonzero;fill-opacity:0.439216}
    .fil1 {fill:#FF008E;fill-rule:nonzero;fill-opacity:0.749020}
   ]]>
  </style>
 </defs>
 <g id="Capa_x0020_1">
  <metadata id="CorelCorpID_0Corel-Layer"/>
  <g id="_2784750879360">
   <g id="freepik--background-simple--inject-45">
    <path class="fil0" d="M12.7 243.86c0,0 -38.24,97.99 17.99,174.96 56.22,76.97 151.86,74.85 225.95,99.07 38.85,12.68 62.87,47.25 96.42,68.3 107.28,67.26 268.4,-26.99 305.29,-135.83 31.94,-94.22 9.71,-182.39 -66.55,-274.55 -76.26,-92.16 -126.27,-160.26 -263.32,-174.72 -137.05,-14.46 -261.05,118.45 -315.78,242.77z"/>
    <path class="fil1" d="M12.7 243.86c0,0 -38.24,97.99 17.99,174.96 56.22,76.97 151.86,74.85 225.95,99.07 38.85,12.68 62.87,47.25 96.42,68.3 107.28,67.26 268.4,-26.99 305.29,-135.83 31.94,-94.22 9.71,-182.39 -66.55,-274.55 -76.26,-92.16 -126.27,-160.26 -263.32,-174.72 -137.05,-14.46 -261.05,118.45 -315.78,242.77z"/>
   </g>
   <g id="freepik--Plants--inject-45">
    <path class="fil2 str0" d="M526.94 549.68c2.69,-6.05 6.63,-15.74 7.98,-23.43 2.29,-12.01 -14.83,-7.83 -14.83,-7.83 0,0 9.25,-14.21 8.56,-25.6 -0.69,-11.39 -11.39,-5.69 -11.39,-5.69 0,0 9.25,-46.93 -4.26,-55.45 -13.51,-8.53 -22.76,54.8 -22.76,54.8 0,0 -5.69,-9.25 -16.36,-5.69 -10.67,3.56 -5.69,31.99 -5.69,31.99 0,0 -12.09,-14.21 -14.93,0 -2.09,10.48 8.94,28.29 14.88,36.94l58.79 -0.05z"/>
    <line class="fil3 str0" x1="494.48" y1="549.68" x2="507.1" y2= "463.93" />
    <line class="fil3 str0" x1="497.12" y1="532.32" x2="481.33" y2= "501.28" />
    <line class="fil3 str0" x1="498.7" y1="519.69" x2="518.68" y2= "503.9" />
    <path class="fil2 str0" d="M224.09 549.68c4.2,-9.39 10.28,-24.46 12.42,-36.39 3.32,-18.84 -23.19,-12.14 -23.19,-12.14 0,0 14.35,-22.09 13.26,-39.77 -1.1,-17.67 -17.67,-8.79 -17.67,-8.79 0,0 14.35,-72.89 -6.63,-86.13 -20.98,-13.24 -35.35,85.01 -35.35,85.01 0,0 -8.82,-14.3 -25.33,-8.87 -16.51,5.43 -8.84,49.67 -8.84,49.67 0,0 -18.84,-22.09 -23.19,0 -3.25,16.29 13.87,43.95 23.12,57.37l91.4 0.03z"/>
    <line class="fil3 str0" x1="173.61" y1="549.68" x2="193.22" y2= "416.49" />
    <line class="fil3 str0" x1="177.68" y1="522.71" x2="153.17" y2= "474.52" />
    <line class="fil3 str0" x1="180.13" y1="503.1" x2="211.18" y2= "478.59" />
   </g>
   <g id="freepik--Floor--inject-45">
    <line class="fil3 str0" x1="115.96" y1="549.68" x2="571.41" y2= "549.68" />
    <line class="fil3 str0" x1="95.72" y1="549.68" x2="103.22" y2= "549.68" />
   </g>
   <g id="freepik--Clouds--inject-45">
    <path class="fil3 str0" d="M477.63 139.75c0,0 -16.2,-17.35 -30.07,-16.2 -13.87,1.15 -16.2,15.05 -24.3,16.2 -8.1,1.15 -21.97,-12.73 -32.39,-6.94 -10.41,5.79 -8.1,13.89 -16.2,15.04 -8.1,1.15 -18.51,-6.94 -26.61,-3.43 -6.11,2.88 -11.92,6.38 -17.35,10.41l177 0c0,0 -4.62,-20.79 -30.07,-15.09z"/>
    <path class="fil3 str0" d="M241.61 81.9c0,0 -16.2,-17.35 -30.07,-16.18 -13.87,1.16 -16.2,15.04 -24.3,16.18 -8.1,1.15 -21.97,-12.72 -32.39,-6.94 -10.41,5.79 -8.1,13.89 -16.2,15.04 -8.1,1.15 -18.51,-6.94 -26.61,-3.43 -6.11,2.87 -11.94,6.38 -17.35,10.41l177.07 0c0,0 -4.69,-20.86 -30.14,-15.09z"/>
    <line class="fil3 str0" x1="211.54" y1="65.71" x2="226.37" y2= "62.55" />
    <circle class="fil4" cx="226.37" cy="62.55" r="2.57"/>
    <rect class="fil5 str0" x="108.58" y="83.88" width="5.67" height="5.67"/>
    <rect class="fil5 str0" x="134.69" y="86.88" width="5.67" height="5.67"/>
    <rect class="fil5 str0" x="150.49" y="73.11" width="5.67" height="5.67"/>
    <rect class="fil5 str0" x="180.29" y="78.11" width="5.67" height="5.67"/>
    <rect class="fil5 str0" x="207.26" y="63.13" width="5.67" height="5.67"/>
    <rect class="fil5 str0" x="238.77" y="79.07" width="5.67" height="5.67"/>
    <rect class="fil5 str0" x="268.86" y="94.11" width="5.67" height="5.67"/>
    <rect class="fil5 str0" x="92.26" y="94.11" width="5.67" height="5.67"/>
   </g>
   <polygon class="fil4" points="423.92,405.94 408.83,393.42 410.62,412.95 415.43,406.04 "/>
   <polygon class="fil5 str0" points="258.72,185.17 271.05,204.21 283.37,191.9 274.98,173.97 278.33,161.09 260.97,154.38 "/>
   <path class="fil5 str0" d="M233.27 154.74l0.57 11.75 -4.9 10.07c-0.13,0.28 -0.2,0.58 -0.2,0.89 0,0.99 0.72,1.84 1.69,2.01l6.17 1.04c0,0 7.28,20.16 9.52,20.72 2.24,0.57 24.64,-10.09 25.19,-14.01 0.55,-3.92 1.71,-11.2 1.71,-11.2 3.35,-1.13 5.6,-4.26 5.6,-7.79 0,-0.02 0,-0.03 0,-0.05 0,-6.15 -10.64,-7.83 -10.64,-7.83l-34.72 -5.6z"/>
   <path class="fil4" d="M240.21 166.59c0,1.71 -0.6,3.03 -1.35,3.03 -0.75,0 -1.35,-1.32 -1.35,-3.03 0,-1.71 0.62,-3.03 1.37,-3.03 0.75,0 1.34,1.32 1.34,3.03z"/>
   <path class="fil3 str0" d="M235.98 161.14c0.8,-1.28 2.2,-2.05 3.7,-2.05 1.24,0 2.42,0.53 3.25,1.45"/>
   <path class="fil3 str0" d="M240.21 182.93c0.3,0.04 0.59,0.06 0.89,0.06 3.06,0 5.77,-1.99 6.68,-4.9"/>
   <path class="fil6 str0" d="M233.27 154.74l57.13 9.52c0,0 1.13,-20.17 -5.6,-30.83 -6.73,-10.65 -28,-8.96 -39.2,-4.49 -11.2,4.47 -12.33,25.79 -12.33,25.79z"/>
   <path class="fil4 str0" d="M257.37 159.21c0,0 0,8.41 3.43,7.84 3.43,-0.57 7.28,-6.71 7.28,-6.71l-10.7 -1.13z"/>
   <path class="fil6 str0" d="M264.67 160.34c0,0 18.48,20.17 26.32,20.72 7.84,0.55 19.04,-2.24 16.24,-5.6 -2.81,-3.36 -17.13,-12.19 -17.13,-12.19l-25.43 -2.93z"/>
   <path class="fil3 str0" d="M316.01 352.68c18.41,27.4 43.59,64.58 44.65,64.93 1.71,0.57 100.82,-47.61 100.82,-47.61 0,0 22.4,48.18 25.21,47.61 2.81,-0.56 -3.92,-61.65 -6.73,-62.17 -2.81,-0.51 -112.57,35.85 -112.57,35.85l-21.29 -70.01 -0.14 -0.36c1.76,-5.11 2.76,-10.47 2.93,-15.88l-63.85 15.12 0.57 12.88c0,0 -43.69,59.94 -43.69,62.73 0,2.79 8.96,92.98 8.96,92.98 0,0 -43.12,26.87 -40.88,28 2.24,1.13 61.05,0 61.05,0l-3.43 -30.83 -3.92 -87.93c0,0 28.94,-24.18 52.3,-45.31"/>
   <rect class="fil5 str0" x="238.99" y="392.86" width="5.67" height="5.67"/>
   <rect class="fil5 str0" x="260.93" y="395.17" width="5.67" height="5.67"/>
   <rect class="fil5 str0" x="248.05" y="485.9" width="5.67" height="5.67"/>
   <rect class="fil5 str0" x="207.16" y="513.91" width="5.67" height="5.67"/>
   <rect class="fil5 str0" x="264.85" y="483.1" width="5.67" height="5.67"/>
   <rect class="fil5 str0" x="357.82" y="414.78" width="5.67" height="5.67"/>
   <rect class="fil5 str0" x="313.17" y="349.84" width="5.67" height="5.67"/>
   <rect class="fil5 str0" x="364.55" y="388.44" width="5.67" height="5.67"/>
   <rect class="fil5 str0" x="458.64" y="367.17" width="5.67" height="5.67"/>
   <rect class="fil5 str0" x="482.96" y="415.21" width="5.67" height="5.67"/>
   <rect class="fil5 str0" x="477.22" y="352.2" width="5.67" height="5.67"/>
   <rect class="fil5 str0" x="267.37" y="513.1" width="5.67" height="5.67"/>
   <path class="fil5 str0" d="M399.31 278.71l-26.89 -73.37 -22.26 -6.32 -6.61 15.96 14.87 3.8 27.4 62.72c0,0 -2.24,6.17 -1.71,8.97 0.53,2.81 5.6,14.56 8.96,16.24 0.59,0.36 1.26,0.56 1.95,0.56 1.25,0 2.41,-0.63 3.09,-1.67 0.68,-1.04 11.77,-4.49 12.9,-7.3 1.13,-2.81 -2.81,-7.83 -3.43,-11.75 -0.62,-3.92 -8.26,-7.84 -8.26,-7.84z"/>
   <path class="fil4 str1" d="M378.42 527.37l-215.19 0 -26.97 -16.42c-1.57,-0.89 -2.55,-2.56 -2.55,-4.37 0,-2.77 2.25,-5.02 5.02,-5.02 0.98,0 1.94,0.29 2.75,0.82l24.56 14.95 208.24 0 8.56 -8.56c0.93,-0.85 2.14,-1.32 3.4,-1.32 2.77,0 5.02,2.25 5.02,5.02 0,1.26 -0.47,2.47 -1.32,3.4l-11.51 11.51z"/>
   <path class="fil4 str0" d="M193.32 539.03c0,-0.01 0,-0.01 0,-0.02 0,-5.57 -4.52,-10.09 -10.09,-10.09 -5.57,0 -10.09,4.52 -10.09,10.09 0,5.57 4.52,10.09 10.09,10.09 0,0 0,0 0,0 5.56,0 10.08,-4.51 10.09,-10.07l-0 0z"/>
   <circle class="fil5 str0" cx="183.23" cy="539.03" r="4.8"/>
   <path class="fil4 str0" d="M347.33 539.03c0,-0.01 0,-0.01 0,-0.02 0,-5.57 -4.52,-10.09 -10.09,-10.09 -5.57,0 -10.09,4.52 -10.09,10.09 0,5.57 4.52,10.09 10.09,10.09 0.01,0 0.01,0 0.02,0 5.56,-0.01 10.06,-4.51 10.07,-10.07z"/>
   <path class="fil5 str0" d="M342.06 539.03c0,-2.65 -2.15,-4.8 -4.79,-4.8 -2.65,0 -4.8,2.15 -4.8,4.8 0,2.65 2.15,4.79 4.8,4.79 2.65,0 4.79,-2.15 4.79,-4.79l0 0z"/>
   <path class="fil5 str0" d="M230.23 235.55l-11.83 8.99 -64.09 -8.84 -7.76 -11.99 -12.42 1.2 -0.39 2.4c0,0 -8.02,0 -8.82,1.61 -0.8,1.61 0,7.21 0,7.21l3.2 0.79c0,0 -0.39,7.21 1.61,8.82 2,1.61 20.04,1.71 20.04,1.71l76.47 18.46 16.87 -14.11 -12.88 -16.25z"/>
   <g>
    <path class="fil5" d="M390.32 301.46l11.87 -3.43c1.02,-0.33 1.71,-1.28 1.71,-2.35l0 0c-0.01,-1.24 -0.93,-2.28 -2.16,-2.43l-8.25 -0.94 -3.17 9.15zm0 0l0 0 0 0z"/>
    <path id="_1" class="fil3 str0" d="M390.32 301.46l11.87 -3.43c1.02,-0.33 1.71,-1.28 1.71,-2.35l0 0c-0.01,-1.24 -0.93,-2.28 -2.16,-2.43l-8.25 -0.94m-3.17 9.15l0 0 0 0z"/>
   </g>
   <line class="fil3 str0" x1="399.14" y1="293.46" x2="396.73" y2= "285.85" />
   <line class="fil3 str0" x1="403.94" y1="293.46" x2="408.75" y2= "291.45" />
   <path class="fil4 str1" d="M344.27 227.23l15.41 -26c0,0 -40.38,-12.73 -56.41,-14.93 -16.03,-2.21 -20.47,2.76 -20.47,2.76l-26.96 26.36 -35.47 26.73 17.13 27.2 25.35 -20.55 21.1 89.59c0,0 29.35,-0.68 44.32,-6.85 15.93,-6.65 31.48,-20.12 31.48,-20.12l-49.31 -104.47 33.82 20.29z"/>
   <g id="freepik--Window--inject-45">
    <path class="fil4 str0" d="M78.09 24.44l0 555.98 530.79 0 0 -555.98 -530.79 0zm524.92 538.38l-519.04 0 0 -514.88 519.04 0 0 514.88z"/>
    <path class="fil7" d="M78.09 24.44l0 555.98 530.79 0 0 -555.98 -530.79 0zm524.92 538.38l-519.04 0 0 -514.88 519.04 0 0 514.88z"/>
    <rect class="fil3 str0" x="83.97" y="47.94" width="519.04" height="514.88"/>
    <path class="fil8" d="M97.31 27.28l-10.98 0 0 15.41 13.22 -0 0 -13.29 -2.24 -2.12zm1.39 14.44l-11.51 0 0 -13.44 9.56 0 1.95 1.85 0 11.59z"/>
    <line class="fil3 str2" x1="592.96" y1="30.64" x2="584.57" y2= "37.92" />
    <line class="fil3 str2" x1="584.57" y1="30.64" x2="592.96" y2= "37.92" />
    <polyline class="fil3 str3" points="604.14,26.17 604.14,42.95 528.03,42.95 528.03,26.17 "/>
    <line class="fil3 str3" x1="573.93" y1="42.95" x2="573.93" y2= "26.73" />
    <line class="fil3 str3" x1="549.87" y1="42.95" x2="549.87" y2= "26.73" />
    <rect class="fil3 str2" x="557.15" y="30.37" width="9.5" height="6.71"/>
    <line class="fil3 str2" x1="540.91" y1="36.8" x2="532.52" y2= "36.8" />
    <rect class="fil4" x="584.09" y="47.8" width="18.92" height="515.02"/>
    <path class="fil7" d="M591.79 311.58l4.32 0c3.56,-0 6.44,2.88 6.44,6.44l0 17.42c0,3.55 -2.88,6.44 -6.44,6.44l-4.32 0c-3.56,-0 -6.44,-2.89 -6.44,-6.44l-0 -17.42c0,-3.56 2.88,-6.44 6.44,-6.44z"/>
   </g>
   <g id="freepik--tool-bars--inject-45">
    <rect class="fil4" x="27.28" y="219.52" width="63.93" height="224.63"/>
    <polygon class="fil7" points="27.28,444.15 91.21,444.15 91.21,219.52 27.28,219.52 "/>
    <path class="fil4" d="M37.25 249.92l16.42 0c2.05,0 3.72,1.66 3.72,3.72l0 17.02c0,2.05 -1.66,3.72 -3.72,3.72l-16.42 0c-2.05,0 -3.72,-1.66 -3.72,-3.72l-0 -17.02c0,-2.05 1.67,-3.72 3.72,-3.72z"/>
    <rect class="fil4" x="27.28" y="219.52" width="63.93" height="11.35"/>
    <line class="fil3 str0" x1="48.43" y1="232.73" x2="48.43" y2= "237.66" />
    <line class="fil3 str0" x1="50.88" y1="232.73" x2="50.88" y2= "237.66" />
    <line class="fil3 str0" x1="53.35" y1="232.73" x2="53.35" y2= "237.66" />
    <line class="fil3 str0" x1="55.81" y1="232.73" x2="55.81" y2= "237.66" />
    <line class="fil3 str0" x1="58.28" y1="232.73" x2="58.28" y2= "237.66" />
    <line class="fil3 str0" x1="60.74" y1="232.73" x2="60.74" y2= "237.66" />
    <line class="fil3 str0" x1="63.21" y1="232.73" x2="63.21" y2= "237.66" />
    <line class="fil3 str0" x1="65.68" y1="232.73" x2="65.68" y2= "237.66" />
    <line class="fil3 str0" x1="68.13" y1="232.73" x2="68.13" y2= "237.66" />
    <line class="fil3 str0" x1="70.59" y1="232.73" x2="70.59" y2= "237.66" />
    <path class="fil5" d="M52.35 263.69l-11.8 -9.76c-0.16,-0.13 -0.36,-0.21 -0.57,-0.21 -0.49,0 -0.89,0.4 -0.89,0.89 0,0.03 0,0.06 0,0.09l1.39 15.31c0.04,0.37 0.31,0.68 0.67,0.77l0.22 0c-0,0 -0,0 -0,0 0.29,0 0.57,-0.14 0.74,-0.38l3.43 -5.04 6.2 0c0.49,-0.02 0.88,-0.42 0.88,-0.91 0,-0.26 -0.11,-0.51 -0.31,-0.69l0.05 -0.09z"/>
    <polygon class="fil4" points="51.77,264.38 39.95,254.56 41.34,269.87 45.13,264.46 "/>
    <polygon class="fil5" points="80.7,264.38 68.88,254.56 70.28,269.87 74.05,264.46 "/>
    <polygon class="fil5" points="85.39,273.09 85.17,269.94 82.36,272.58 "/>
    <polygon class="fil5" points="85.39,373.47 85.17,370.32 82.36,372.97 "/>
    <polygon class="fil5" points="85.39,404.28 85.17,401.13 82.36,403.78 "/>
    <polygon class="fil5" points="85.39,435.88 85.17,432.73 82.36,435.37 "/>
    <polygon class="fil5" points="55.98,337.9 55.76,334.75 52.95,337.4 "/>
    <polygon class="fil5" points="55.98,373.47 55.76,370.32 52.95,372.97 "/>
    <polygon class="fil5" points="55.98,404.28 55.76,401.13 52.95,403.78 "/>
    <polygon class="fil5" points="55.98,435.88 55.76,432.73 52.95,435.37 "/>
    <rect class="fil5" transform="matrix(1.06719 0.908568 -0.908568 1.06719 49.3816 291.432)" width="1.92" height="14.47"/>
    <path class="fil5" d="M45.19 291.78c-2.77,-3.07 -2.83,-3.66 -0.56,-7.14 -3.07,2.77 -3.68,2.83 -7.14,0.58 2.77,3.07 2.83,3.67 0.58,7.12 3.05,-2.77 3.66,-2.83 7.12,-0.57z"/>
    <path class="fil5" d="M57.49 293.44c-1.71,-1.9 -1.71,-2.28 -0.36,-4.4 -1.88,1.71 -2.26,1.71 -4.4,0.34 1.71,1.9 1.71,2.28 0.36,4.4 1.88,-1.71 2.26,-1.73 4.4,-0.34z"/>
    <path class="fil5" d="M54.05 300.7c-1.22,-1.35 -1.23,-1.63 -0.26,-3.15 -1.34,1.22 -1.61,1.25 -3.13,0.26 1.22,1.34 1.25,1.61 0.26,3.13 1.34,-1.22 1.63,-1.23 3.13,-0.24z"/>
    <polygon class="fil5" points="67.36,369.14 68.59,370.32 81.72,354.87 80.51,353.71 "/>
    <polygon class="fil5" points="85.83,302.91 75.4,294.25 76.64,307.74 79.96,302.98 "/>
    <path class="fil5" d="M75.27 303.7c-5,0 -9.08,-2.95 -9.08,-6.58 0,-3.63 4.08,-6.58 9.08,-6.58 5,0 9.08,2.95 9.08,6.58 0,3.63 -4.06,6.58 -9.08,6.58zm0 -12.37c-4.57,0 -8.29,2.59 -8.29,5.79 0,3.2 3.72,5.79 8.29,5.79 4.57,0 8.29,-2.6 8.29,-5.79 0,-3.19 -3.72,-5.79 -8.29,-5.79z"/>
    <path class="fil5" d="M69.75 302.38c-0.01,-0 -0.01,-0 -0.02,-0 -1.24,0 -2.24,-1 -2.24,-2.24 0,-1.24 1,-2.24 2.24,-2.24 1.24,0 2.24,1 2.24,2.24 0,0.01 0,0.01 0,0.02 -0.01,1.23 -1,2.22 -2.23,2.23l0 0zm0 -3.68c-0.01,-0 -0.01,-0 -0.02,-0 -0.8,0 -1.46,0.65 -1.46,1.46 0,0.8 0.65,1.46 1.46,1.46 0.8,0 1.46,-0.65 1.46,-1.46 0,0 0,0 0,0 0,-0.8 -0.64,-1.45 -1.44,-1.46l0 0z"/>
    <path class="fil5" d="M69.09 304.73l-0.26 -0.74c0.95,-0.25 1.76,-0.87 2.26,-1.71 0.16,-0.35 0.25,-0.73 0.25,-1.12 0,-0.28 -0.04,-0.55 -0.13,-0.82l0.75 -0.26c0.11,0.34 0.17,0.7 0.17,1.06 0,0.5 -0.11,1 -0.32,1.45 -0.58,1.04 -1.57,1.81 -2.72,2.12l-0 0z"/>
    <rect class="fil5" transform="matrix(-0.991055 -0.991055 0.991055 -0.991055 49.0078 330.213)" width="7" height="3.25"/>
    <path class="fil5" d="M33.7 335.98l1.13 1.15 5.57 -5.57c-0.1,-0.16 -0.15,-0.35 -0.15,-0.54 0,-0.29 0.12,-0.56 0.32,-0.76 0.21,-0.21 0.49,-0.33 0.78,-0.33 0.61,0 1.1,0.49 1.1,1.1 0,0.61 -0.49,1.1 -1.1,1.1 -0.2,0 -0.39,-0.05 -0.56,-0.15l-5.55 5.57 1.06 1.04 9.38 -2.45 2.45 -5.14 -6.85 -6.85 -5.14 2.31 -2.45 9.52z"/>
    <line class="fil3 str0" x1="32.71" y1="314.2" x2="87.74" y2= "314.2" />
    <rect class="fil5" transform="matrix(0.991055 -0.991055 0.991055 0.991055 75.16 323.275)" width="3.25" height="7"/>
    <path class="fil5" d="M69.22 326.55l-2.5 9.44 1.13 1.15 5.57 -5.57c-0.1,-0.16 -0.15,-0.35 -0.15,-0.54 0,-0.29 0.12,-0.56 0.32,-0.76 0.21,-0.21 0.49,-0.33 0.78,-0.33 0.61,0 1.1,0.49 1.1,1.1 0,0.61 -0.49,1.1 -1.1,1.1 -0.2,0 -0.39,-0.05 -0.56,-0.15l-5.55 5.57 1.06 1.04 9.51 -2.45 2.45 -5.14 -6.85 -6.85 -5.21 2.4z"/>
    <path class="fil5" d="M65.83 329.29c0.34,-0.67 0.7,-1.39 1.06,-2.19 0.4,-0.75 0.61,-1.58 0.61,-2.43 0,-0.64 -0.12,-1.28 -0.35,-1.87 -0.69,-1.25 -1.85,-2.18 -3.22,-2.59 -0.04,-0.01 -0.08,-0.02 -0.12,-0.02 -0.25,0 -0.45,0.2 -0.45,0.45 0,0.2 0.14,0.38 0.33,0.44 1.13,0.33 2.08,1.08 2.65,2.11 0.18,0.47 0.27,0.98 0.27,1.49 0,0.71 -0.18,1.42 -0.53,2.04 -0.36,0.81 -0.72,1.51 -1.06,2.16 -1.71,3.43 -2.77,5.5 1.71,8.91 0.04,0.01 0.09,0.02 0.14,0.02 0.05,0 0.09,-0.01 0.14,-0.02 0.13,0 0.26,-0.06 0.34,-0.17 0.08,-0.09 0.13,-0.2 0.13,-0.32 0,-0.12 -0.04,-0.23 -0.13,-0.32 -3.97,-2.83 -3.25,-4.26 -1.52,-7.69z"/>
    <path class="fil5" d="M32.93 352.22l0 0.89c-0,0.1 -0,0.19 -0,0.29 0,1.25 0.08,2.51 0.22,3.75l1.71 -0.39c-0.11,-0.86 -0.17,-1.73 -0.17,-2.6 0,-0.05 0,-0.1 0,-0.14l6.85 0 0 15.26 -2.55 0 0 1.71 6.85 0 0 -1.71 -2.52 0 0 -15.26 6.61 0 0 3.2 1.71 -0c0,-1.16 0,-4.13 0,-4.13l0 -0.89 -18.72 0.02z"/>
    <path class="fil9" d="M52.93 394.57c0,-3.93 -4.41,-7.11 -9.85,-7.11 -5.44,0 -9.85,3.18 -9.85,7.11 0,3.93 4.41,7.11 9.85,7.11 5.44,0 9.85,-3.18 9.85,-7.11z"/>
    <ellipse class="fil3 str4" cx="43.09" cy="394.57" rx="9.85" ry="7.11"/>
    <path class="fil5" d="M73.09 394.78l10.82 -11.73c0.27,-0.28 0.64,-0.44 1.02,-0.44 0.24,0 0.48,0.06 0.69,0.18l-0 0c0.42,0.26 0.67,0.72 0.67,1.21 0,0.26 -0.07,0.52 -0.21,0.74l-8.27 13.05 -4.73 -3.01z"/>
    <g>
     <path class="fil5" d="M71.67 395.75c2.67,-0.33 6.85,1.83 5.74,5.14 -0.37,0.78 -1.02,1.39 -1.81,1.71 -2.09,0.84 -4.33,1.28 -6.59,1.28 -0.36,0 -0.73,-0.01 -1.09,-0.03 0.8,-0.46 1.34,-1.25 1.49,-2.16 0,-0.11 0,-0.22 0,-0.33 0,-0.82 -0.05,-1.64 -0.14,-2.44 0,-1.32 0.93,-3.1 2.4,-3.2l-0 0.03zm0 0l0 0 0 0z"/>
    </g>
    <path class="fil5" d="M48.64 421.49c-0.05,-1.16 -0.46,-2.27 -1.15,-3.2l-3.1 3.1c0.8,1.05 1.27,2.32 1.34,3.65 0.09,1.21 0.3,2.41 0.61,3.58l3.05 -3.05c-0.41,-1.32 -0.66,-2.69 -0.75,-4.08l-0 0z"/>
    <path class="fil5" d="M45.06 425.09c-0.06,-1.16 -0.46,-2.27 -1.15,-3.2l-3.12 3.1c0.82,1.04 1.29,2.31 1.35,3.63 0.09,1.21 0.29,2.41 0.6,3.58l3.05 -3.05c-0.39,-1.32 -0.64,-2.68 -0.74,-4.06l0 0z"/>
    <path class="fil5" d="M49.32 421.44c0.08,1.21 0.29,2.41 0.62,3.58l4.47 -4.49 -4.57 -4.57 -1.85 1.85c0.8,1.05 1.27,2.31 1.34,3.63l-0 0z"/>
    <path class="fil5" d="M41.46 428.62c-0.05,-1.16 -0.46,-2.27 -1.15,-3.2l-2.6 2.6 -1.92 5.93c-0.02,0.05 -0.03,0.11 -0.03,0.17 0,0.28 0.23,0.51 0.51,0.51 0.06,0 0.13,-0.01 0.18,-0.03l5.81 -1.9c-0.4,-1.33 -0.68,-2.7 -0.8,-4.08l-0 0zm-3.68 3.96l1.03 -3.13 2.07 2.07 -3.1 1.06z"/>
    <path class="fil5" d="M67.77 424.3l-3.43 3.43 8.05 8.07 3.43 -3.43 0.5 0.5 8.05 -8.07 -9.03 -9.04 -8.07 8.07 0.5 0.48zm4.64 9.45l-6.17 -6.05 2.43 -2.43 6.13 6.1 -2.4 2.38z"/>
    <polygon class="fil5" points="38.5,222.52 38.5,223.6 36.25,225.5 38.5,227.39 38.5,228.46 34.97,225.5 "/>
    <polygon class="fil5" points="34.63,222.52 34.63,223.6 32.4,225.5 34.63,227.39 34.63,228.46 31.1,225.5 "/>
    <rect class="fil4" x="444.3" y="116.73" width="226" height="149.58"/>
    <polygon class="fil10" points="520.87,151.74 670.3,151.74 670.3,122.98 520.87,122.98 "/>
    <polygon class="fil7" points="520.87,151.76 520.87,122.98 444.3,122.98 444.3,266.31 670.3,266.31 670.3,151.76 "/>
    <rect class="fil5" x="459.25" y="178.54" width="11.05" height="11.05"/>
    <rect class="fil5" x="464.77" y="184.06" width="11.05" height="11.05"/>
    <polygon class="fil5" points="499.43,184.06 504.95,184.06 504.95,178.54 493.9,178.54 493.9,189.59 499.43,189.59 "/>
    <path class="fil5" d="M510.94 195.56l-11.99 0 0 -11.99 11.99 0 0 11.99zm-11.05 -0.94l10.1 0 0 -10.09 -10.1 0 0 10.09z"/>
    <path class="fil5" d="M540.53 190.05l-11.99 0 0 -11.99 11.99 0 0 11.99zm-11.03 -0.94l10.1 0 0 -10.1 -10.1 0 0 10.1z"/>
    <path class="fil5" d="M546.07 195.56l-11.99 0 0 -11.99 11.99 0 0 11.99zm-11.05 -0.94l10.1 0 0 -10.09 -10.1 0 0 10.09z"/>
    <rect class="fil5" x="534.56" y="184.06" width="5.51" height="5.51"/>
    <path class="fil5" d="M575.4 246.31l-11.36 0 0 -11.36 11.36 0 0 11.36zm-11.05 -0.31l10.74 0 0 -10.74 -10.74 0 0 10.74z"/>
    <path class="fil5" d="M581.24 252.22l-11.99 0 0 -11.99 11.99 0 0 11.99zm-11.05 -0.92l10.1 0 0 -10.1 -10.1 -0 0 10.1z"/>
    <rect class="fil5" x="569.73" y="240.64" width="5.51" height="5.51"/>
    <path class="fil5" d="M611.13 246.62l-11.99 0 0 -11.99 11.99 0 0 11.99zm-11.03 -0.94l10.09 0 0 -10.09 -10.09 0 0 10.09z"/>
    <path class="fil5" d="M616.64 252.22l-11.99 0 0 -11.99 11.99 0 0 11.99zm-11.03 -0.92l10.1 0 0 -10.1 -10.1 -0 0 10.1z"/>
    <polygon class="fil5" points="645.91,240.64 645.91,246.16 640.4,246.16 640.4,251.67 651.44,251.67 651.44,240.64 "/>
    <path class="fil5" d="M651.96 252.22l-11.99 0 0 -6.46 5.51 0 0 -5.53 6.47 0 0 11.99zm-11.05 -0.92l10.1 0 0 -10.1 -4.57 -0 0 5.51 -5.53 0 0 4.59z"/>
    <path class="fil5" d="M646.39 246.62l-11.99 0 0 -11.99 11.99 0 0 11.99zm-11.05 -0.94l10.1 0 0 -10.09 -10.1 0 0 10.09z"/>
    <polygon class="fil5" points="463.48,238.76 469.63,238.76 469.63,233.88 458.59,233.88 458.59,244.91 463.48,244.91 "/>
    <rect class="fil5" x="464.73" y="240.01" width="4.26" height="4.26"/>
    <polygon class="fil5" points="470.25,239.39 470.25,245.54 464.12,245.54 464.12,250.44 475.15,250.44 475.15,239.39 "/>
    <polygon class="fil5" points="574.97,184.06 574.97,178.54 563.93,178.54 563.93,189.59 569.44,189.59 569.44,184.06 "/>
    <polygon class="fil5" points="574.97,184.06 574.97,189.59 569.44,189.59 569.44,195.1 580.49,195.1 580.49,184.06 "/>
    <polygon class="fil5" points="497.94,238.55 504.89,238.55 504.89,233.45 493.85,233.45 493.85,244.49 497.94,244.49 "/>
    <rect class="fil5" x="499.05" y="239.8" width="11.35" height="10.21"/>
    <polygon class="fil5" points="540.14,240.23 540.14,234.7 529.11,234.7 529.11,245.74 533.84,245.74 533.84,240.71 535.09,240.71 535.09,251.26 545.67,251.26 545.67,240.23 "/>
    <line class="fil3 str5" x1="460.23" y1="221.15" x2="505.87" y2= "221.15" />
    <line class="fil3 str5" x1="460.23" y1="137.99" x2="505.87" y2= "137.99" />
    <line class="fil3 str5" x1="460.23" y1="167.7" x2="527.74" y2= "167.7" />
    <polygon class="fil5" points="629.33,129.87 629.33,131.38 632.47,134.03 629.33,136.67 629.33,138.17 634.27,134.03 "/>
    <polygon class="fil5" points="634.73,129.87 634.73,131.38 637.86,134.03 634.73,136.67 634.73,138.17 639.66,134.03 "/>
    <line class="fil3 str6" x1="645.91" y1="127.37" x2="645.91" y2= "141.74" />
    <line class="fil3 str6" x1="652.16" y1="131.74" x2="663.43" y2= "131.74" />
    <line class="fil3 str6" x1="652.16" y1="134.24" x2="663.43" y2= "134.24" />
    <line class="fil3 str6" x1="652.16" y1="136.74" x2="663.43" y2= "136.74" />
    <line class="fil3 str6" x1="652.16" y1="139.24" x2="663.43" y2= "139.24" />
   </g>
   <path class="fil11 str7" d="M366.52 388.44l-20.32 -66.84c-5.27,3.54 -11.57,7.28 -17.93,9.93 -14.97,6.17 -44.32,6.85 -44.32,6.85l-0.54 -2.31c-7.73,10.64 -33.45,46.18 -39.97,56.79l1.22 0 0 5.67 -2.53 0c1.18,13.75 7.1,73.59 8.47,87.38l3.12 0 0 5.67 -5.67 0 0 -1.05c-3.62,2.28 -10.24,6.46 -16.96,10.83 3.68,1.56 6.28,4.71 5.6,10.7 5.85,1.54 11.62,3.18 17.26,4.97 5.53,-0.08 10.33,-0.16 13.42,-0.21l0 -3.71 3.28 0 -2.7 -24.34 -3.09 0 0 -5.67 2.65 0 -3.67 -82.26 -2.9 0 0 -5.67 5.67 0 0 0.4c7.5,-6.31 28.28,-23.9 46.57,-40.32l0 -5.41 5.67 0 0 5.67 -0.93 0c15.17,22.56 34.04,50.43 40.5,59.27l5.08 0 0 1.81c7.03,-2.97 26.07,-11.97 45.52,-21.28l-0.17 -1.89 1.5 1.25c20.39,-9.76 40.94,-19.72 48.3,-23.29l0 -4.21 5.67 0 0 5.67 -1.49 0c4.06,8.62 16.3,34.36 21.64,42.37l2.85 0c0.61,-9.89 -3.51,-47.39 -6.23,-57.34l-3.85 0 0 -1.85c-15.56,4.15 -91.36,29.16 -107,34.33l0 3.76 -5.67 0 0 -5.67 1.98 0z"/>
  </g>
 </g>
</svg>
