<?xml version="1.0" encoding="UTF-8"?>
<!DOCTYPE svg PUBLIC "-//W3C//DTD SVG 1.1//EN" "http://www.w3.org/Graphics/SVG/1.1/DTD/svg11.dtd">
<!-- Creator: CorelDRAW -->
<svg xmlns="http://www.w3.org/2000/svg" xml:space="preserve" width="129.406mm" height="130.034mm" version="1.1" style="shape-rendering:geometricPrecision; text-rendering:geometricPrecision; image-rendering:optimizeQuality; fill-rule:evenodd; clip-rule:evenodd"
viewBox="0 0 1648.01 1656.01"
 xmlns:xlink="http://www.w3.org/1999/xlink"
 xmlns:xodm="http://www.corel.com/coreldraw/odm/2003">
 <defs>
  <style type="text/css">
   <![CDATA[
    .str4 {stroke:#263238;stroke-width:1.68;stroke-miterlimit:22.9256}
    .str6 {stroke:#263238;stroke-width:3.37;stroke-miterlimit:22.9256}
    .str5 {stroke:#575757;stroke-width:3.37;stroke-miterlimit:22.9256}
    .str3 {stroke:white;stroke-width:3.37;stroke-miterlimit:22.9256}
    .str1 {stroke:#263238;stroke-width:6.74;stroke-miterlimit:22.9256}
    .str0 {stroke:#263238;stroke-width:1.68;stroke-linecap:round;stroke-linejoin:round;stroke-miterlimit:22.9256}
    .str2 {stroke:#263238;stroke-width:3.37;stroke-linecap:round;stroke-linejoin:round;stroke-miterlimit:22.9256}
    .fil2 {fill:none;fill-rule:nonzero}
    .fil7 {fill:black;fill-rule:nonzero}
    .fil3 {fill:#263238;fill-rule:nonzero}
    .fil0 {fill:#407BFF;fill-rule:nonzero}
    .fil11 {fill:#575757;fill-rule:nonzero}
    .fil9 {fill:gray;fill-rule:nonzero}
    .fil4 {fill:white;fill-rule:nonzero}
    .fil8 {fill:black;fill-rule:nonzero;fill-opacity:0.200000}
    .fil5 {fill:white;fill-rule:nonzero;fill-opacity:0.200000}
    .fil6 {fill:white;fill-rule:nonzero;fill-opacity:0.439216}
    .fil10 {fill:white;fill-rule:nonzero;fill-opacity:0.501961}
    .fil1 {fill:#00B0F6;fill-rule:nonzero;fill-opacity:0.701961}
   ]]>
  </style>
     <clipPath id="id0" style="clip-rule:nonzero">
      <path d="M603.11 1125.34l-250.94 0c-12.36,-0 -22.38,10.02 -22.38,22.38l0 28.55c0,12.36 10.02,22.38 22.38,22.38l250.94 0c12.36,0 22.38,-10.02 22.38,-22.38l0 -28.55c0,-12.36 -10.02,-22.38 -22.38,-22.38z"/>
     </clipPath>
     <clipPath id="id1" style="clip-rule:nonzero">
      <path d="M721.33 830.45c0,0 193.65,53.37 224.73,49.54 31.07,-3.83 40.53,-17.56 47.83,-17.56 7.3,0 27.02,9.59 36.03,8.78 9.01,-0.81 19.09,-3.2 19.09,2.39 0,5.58 -7.97,14.37 -12.75,14.37 -4.77,0 -23.91,-0.81 -23.91,-0.81 0,0 37.47,11.17 39.09,18.33 0.17,0.84 0.26,1.7 0.26,2.56 0,6.24 -4.51,11.56 -10.66,12.57 -3.81,0.69 -7.38,2.35 -10.36,4.82 -1.61,6.25 -4.32,12.19 -7.97,17.52 -4.77,5.58 -19.1,7.97 -35.04,4.77 -15.94,-3.2 -43.86,-17.52 -50.21,-21.53 -6.35,-4.01 -200.05,-21.53 -214.41,-24.68 -14.37,-3.15 -31.89,-3.2 -37.47,-12.79 -5.58,-9.59 35.76,-58.27 35.76,-58.27z"/>
     </clipPath>
     <clipPath id="id2" style="clip-rule:nonzero">
      <path d="M557.76 635.18c0,0 17.52,47.78 39.81,79.67 22.29,31.89 31.89,65.39 17.56,101.24 -7.71,20.77 -24.44,36.96 -45.44,44 -21,7.04 11.17,105.2 7.97,133.12 -3.2,27.92 -46.21,60.57 -110.79,63.05 -64.58,2.48 -120.33,-20.72 -120.33,-43.05 0,-22.34 45.4,-141.05 45.4,-165.77 0,-24.72 -3.96,-102 17.56,-171.13 21.53,-69.13 97.24,-92.14 148.26,-41.12z"/>
     </clipPath>
     <clipPath id="id3" style="clip-rule:nonzero">
      <path d="M562.53 647.11c12.27,7.82 23.56,17.22 33.46,27.88 18.33,19.14 106.82,153.12 106.82,153.12 0,0 -26.3,55.03 -34.27,56.61 -7.97,1.58 -146.68,-117.09 -159.42,-131.5 -12.75,-14.41 -20.72,-40.53 -16.75,-51.84l70.17 -54.27zm0 0l0 0 0 0z"/>
     </clipPath>
     <clipPath id="id4" style="clip-rule:nonzero">
      <path d="M693.22 484.54c0,0 1.62,23.1 -2.39,30.26 -4.01,7.16 -15.13,14.37 -15.13,23.91 0,9.55 7.97,22.52 5.58,29.5 -2.39,6.98 -15.18,7.97 -15.18,7.97 0,0 -23.87,29.5 -31.07,39.86 -7.21,10.36 -10.36,6.35 -21.53,3.2 -11.17,-3.15 -35.04,-23.91 -48.59,-39.86 -13.56,-15.94 9.01,-64.58 38.23,-97.23 29.23,-32.65 73.36,-31.89 82.91,-22.52 9.55,9.37 7.16,24.91 7.16,24.91z"/>
     </clipPath>
     <clipPath id="id5" style="clip-rule:nonzero">
      <path d="M717.95 449.46l0 3.2 1.44 39.04 -43.01 5.58 -9.59 -16.75 0 18.33c-2.44,-0.2 -4.9,-0.31 -7.35,-0.31 -10.83,0 -21.6,2 -31.69,5.89 -20.72,7.97 -47.02,64.58 -45.44,87.68 1.58,23.1 21.53,27.88 19.14,63.05 -2.39,35.17 -55.75,70.03 -96.28,47.74 -40.53,-22.29 -47.06,-51.02 -63.77,-45.44 -16.71,5.58 -42.24,39.86 -58.18,-8.78 -15.94,-48.64 -8.78,-79.67 28.69,-119.52 37.47,-39.85 66.92,-36.66 71.74,-68.54 4.82,-31.89 15.13,-74.94 49.54,-99.08 34.41,-24.14 83.68,-25.49 126.1,-7.16 42.42,18.33 58.68,74.35 58.68,95.07z"/>
     </clipPath>
 </defs>
 <g id="Capa_x0020_1">
  <metadata id="CorelCorpID_0Corel-Layer"/>
  <g id="_2749357379600">
   <g id="freepik--background-simple--inject-4">
    <path class="fil0" d="M1595.86 643.92c0,0 67.55,288.22 -120.47,539.57 -188.02,251.34 -515.61,348.84 -779.11,434.95 -263.5,86.11 -510.02,-13.28 -602.52,-234.63 -92.5,-221.35 94.35,-340.51 135.56,-629.59 41.21,-289.08 8.33,-372.31 200.54,-592.44 192.21,-220.13 586.72,-214.82 853.41,11.12 266.7,225.94 312.59,471.02 312.59,471.02z"/>
    <path class="fil1" d="M1595.86 643.92c0,0 67.55,288.22 -120.47,539.57 -188.02,251.34 -515.61,348.84 -779.11,434.95 -263.5,86.11 -510.02,-13.28 -602.52,-234.63 -92.5,-221.35 94.35,-340.51 135.56,-629.59 41.21,-289.08 8.33,-372.31 200.54,-592.44 192.21,-220.13 586.72,-214.82 853.41,11.12 266.7,225.94 312.59,471.02 312.59,471.02z"/>
   </g>
   <g id="freepik--Plants--inject-4">
    <path class="fil0" d="M109.3 862.47c0,0 0,-18.83 26.39,-45.03 26.39,-26.21 43.28,-41.43 43.28,-41.43 0,0 13.19,43.28 -11.26,69.67 -18.03,18.5 -37.69,35.6 -58.55,50.83l0.14 -34.03z"/>
    <path class="fil0" d="M147.58 980.1c0,0 0,-18.83 26.35,-45.03 26.35,-26.21 43.32,-41.43 43.32,-41.43 0,0 13.19,43.01 -11.3,69.53 -17.97,18.49 -37.76,35.62 -58.57,50.83l0.2 -33.9z"/>
    <path class="fil0" d="M110.97 894.58c0,0 -1.98,-18.73 -30.98,-42.2 -29,-23.46 -47.69,-36.61 -47.69,-36.61 0,0 -8.51,44.5 18.6,68.09 19.76,16.52 41.17,31.45 63.43,44.41l-3.35 -33.69z"/>
    <path class="fil0" d="M157.17 1033.47c0,0 -3.92,-18.42 -35.22,-38.69 -31.3,-20.27 -51.07,-31.52 -51.07,-31.52 0,0 -3.78,45.03 25.67,65.8 21.37,14.31 44.11,26.95 67.53,37.5l-6.91 -33.08z"/>
    <path class="fil0" d="M148.48 1184.93c0,0 0,-18.83 -26.35,-45.04 -26.35,-26.21 -43.32,-41.43 -43.32,-41.43 0,0 -13.19,43.32 11.3,69.71 18.01,18.53 37.66,35.56 58.52,50.83l-0.15 -34.08z"/>
    <path class="fil0" d="M148.93 1221.9c0,0 -2.66,-18.64 19.68,-48.5 22.34,-29.86 36.97,-47.15 36.97,-47.15 0,0 19.23,40.98 -1.26,70.57 -15.16,20.87 -32.16,40.52 -50.58,58.54l-4.81 -33.46z"/>
    <path class="fil0" d="M174.92 1331.43c0,0 0,-18.83 -26.35,-45.04 -26.35,-26.21 -43.32,-41.43 -43.32,-41.43 0,0 -13.19,43.32 11.3,69.67 18.04,18.5 37.74,35.61 58.57,50.85l-0.2 -34.05z"/>
    <path class="fil0" d="M157.35 1430.77c0,0 4.73,-18.24 -14.1,-50.39 -18.82,-32.16 -31.52,-51.07 -31.52,-51.07 0,0 -23.73,38.55 -6.71,70.3 12.7,22.47 27.3,43.97 43.57,63.95l8.76 -32.78z"/>
    <path class="fil2 str0" d="M106.91 857.65c1.33,19.55 3.76,39.25 7.18,58.57 10.45,53.82 36.48,88.58 46.93,137.22 10.45,48.64 -19.5,111.28 -11.48,173.79 8.01,62.51 32.33,97.18 25.35,138.89 -6.98,41.7 -43.52,154.54 -43.52,154.54"/>
    <line class="fil2 str0" x1="111.24" y1="907.1" x2="82.82" y2= "885.26" />
    <line class="fil2 str0" x1="109.88" y1="881.97" x2="121.77" y2= "860.81" />
    <path class="fil2 str0" d="M159.47 1051.13c0,0 -23.78,-18.01 -48.23,-35.67"/>
    <path class="fil2 str0" d="M147.58 1014.02c0,0 19.82,-38.87 42.29,-64.63"/>
    <path class="fil2 str0" d="M147.58 1211.72c-13.57,-24.92 -30.77,-47.91 -50.89,-67.93"/>
    <path class="fil2 str0" d="M152.17 1238.38c7.2,-16.91 15.88,-33.41 25.79,-48.93 13.87,-20.49 15.85,-23.15 15.85,-23.15"/>
    <path class="fil2 str0" d="M174.92 1366.06c-5.98,-14.91 -13.21,-29.52 -21.39,-43.32 -8.22,-12.84 -17.55,-25.04 -27.77,-36.33"/>
    <path class="fil2 str0" d="M148.75 1463.56c0.25,-2.57 0.37,-5.17 0.37,-7.76 0,-11.72 -2.57,-23.32 -7.49,-33.94 -9.91,-19.18 -21.17,-44.27 -25.81,-54.04"/>
    <path class="fil0" d="M281.96 1114.08c0,0 2.03,-11.8 -11.62,-31.21 -13.65,-19.41 -22.52,-30.67 -22.52,-30.67 0,0 -12.97,25.72 -0.5,45.04 9.26,13.55 19.69,26.43 31.07,38.24l3.56 -21.39z"/>
    <path class="fil0" d="M245.21 1183.71c0,0 2.03,-11.85 -11.67,-31.21 -13.69,-19.37 -22.52,-30.71 -22.52,-30.71 0,0 -12.97,25.76 -0.45,45.04 9.25,13.54 19.69,26.43 31.06,38.24l3.57 -21.35z"/>
    <path class="fil0" d="M277.46 1134.04c0,0 3.24,-11.53 24,-23.1 20.76,-11.58 33.73,-17.79 33.73,-17.79 0,0 0.5,28.82 -19.05,40.53 -14.22,8.2 -29.21,15.26 -44.62,20.99l5.94 -20.63z"/>
    <path class="fil0" d="M233.37 1216.13c0,0 4.5,-11.12 26.3,-20.45 21.8,-9.32 35.44,-14.19 35.44,-14.19 0,0 -2.52,28.73 -23.24,38.46 -15.02,6.64 -30.65,12.11 -46.57,16.15l8.07 -19.98z"/>
    <path class="fil0" d="M222.38 1312.01c0,0 2.03,-11.8 21.44,-25.49 19.41,-13.69 31.52,-21.26 31.52,-21.26 0,0 3.56,28.6 -14.64,42.47 -13.29,9.64 -27.47,18.23 -42.16,25.53l3.84 -21.25z"/>
    <path class="fil0" d="M218.1 1335.16c0,0 3.69,-11.39 -7.07,-32.56 -10.76,-21.17 -18.01,-33.6 -18.01,-33.6 0,0 -16.48,23.64 -6.85,44.41 7.24,14.76 15.77,28.95 25.37,42.28l6.56 -20.53z"/>
    <path class="fil0" d="M185 1430.41c0,0 -1.35,-11.89 -19.95,-26.66 -18.6,-14.77 -30.4,-23.06 -30.4,-23.06 0,0 -5.18,28.37 12.2,43.23 12.66,10.4 26.29,19.81 40.52,27.92l-2.38 -21.44z"/>
    <path class="fil0" d="M189.91 1401.05c0,0 2.03,-11.8 21.44,-25.49 19.41,-13.69 31.53,-21.3 31.53,-21.3 0,0 3.56,28.6 -14.68,42.51 -13.28,9.64 -27.41,18.25 -42.12,25.53l3.83 -21.25z"/>
    <path class="fil0" d="M189.91 1465.22c0,0 -0.99,-11.93 14.32,-30.08 15.31,-18.15 25.22,-28.6 25.22,-28.6 0,0 10.67,26.75 -3.42,45.03 -10.41,12.7 -21.9,24.59 -34.26,35.39l-1.86 -21.75z"/>
    <path class="fil2 str0" d="M283.99 1111.34c-2.93,12.14 -6.65,24.3 -10.91,36.04 -12.38,32.61 -32.47,51.56 -44.31,81.06 -11.85,29.5 0,72.06 -11.62,110.25 -11.62,38.19 -30.85,57.42 -31.03,84.35 -0.18,26.93 10.45,101.64 10.45,101.64"/>
    <line class="fil2 str0" x1="275.93" y1="1141.83" x2="296.1" y2= "1131.24" />
    <line class="fil2 str0" x1="279.49" y1="1126.24" x2="274.31" y2= "1111.7" />
    <path class="fil2 str0" d="M230.04 1226.94c0,0 16.84,-8.6 34.14,-17.16"/>
    <path class="fil2 str0" d="M241.52 1204.97c-4.92,-15.6 -11.49,-30.74 -19.5,-45.03"/>
    <path class="fil2 str0" d="M220.04 1328.95c11.24,-14.21 24.49,-26.75 39.32,-37.16"/>
    <path class="fil2 str0" d="M214.27 1345.02c-2.66,-11.42 -6.32,-22.65 -10.86,-33.46 -6.48,-14.37 -7.43,-16.26 -7.43,-16.26"/>
    <path class="fil2 str0" d="M187.07 1443.16c-6.55,-8.09 -13.85,-15.66 -21.71,-22.52 -5,-3.68 -9.73,-7.79 -14.09,-12.24"/>
    <path class="fil2 str0" d="M186.13 1422.76c5.35,-8.75 11.4,-17.04 18.01,-24.85 6.56,-7.16 13.71,-13.79 21.34,-19.78"/>
    <path class="fil2 str0" d="M191.98 1486.75c0.67,-9.12 3.79,-17.9 9.01,-25.4 8.29,-10.94 18.01,-25.49 22.02,-31.16"/>
    <path class="fil3" d="M250.44 1511.38l-172.48 0 0 129.25c0,7.46 6.05,13.51 13.51,13.51l145.28 0c7.46,0 13.51,-6.05 13.51,-13.51l0 -129.25 0.18 0z"/>
    <path class="fil3" d="M79.49 1533.86l171.13 0c7.46,-0 13.51,-6.05 13.51,-13.51l0 0c0,-7.46 -6.05,-13.51 -13.51,-13.51l-171.13 0c-7.46,-0 -13.51,6.05 -13.51,13.51l0 0c0,7.46 6.05,13.51 13.51,13.51l0 0z"/>
   </g>
   <g id="freepik--Clock--inject-4">
    <circle class="fil3" cx="407.57" cy="178.57" r="153.12"/>
    <circle class="fil4" transform="matrix(-1.23852 -0.502408 -0.502408 1.23852 407.586 178.557)" r="99.37"/>
    <polyline class="fil2 str1" points="493.72,202.98 407.57,178.57 407.57,58.06 "/>
   </g>
   <g id="freepik--Graphics--inject-4">
    <polygon class="fil3" points="1150.51,863.1 1318.63,863.1 1538.71,272.42 1370.6,272.42 "/>
    <polygon class="fil5" points="1150.51,863.1 1318.63,863.1 1538.71,272.42 1370.6,272.42 "/>
    <path class="fil3" d="M1415.5 416.71l43.23 0c6.02,-0.36 11.28,-4.17 13.51,-9.77l16.71 -44.81c0.55,-0.98 0.84,-2.09 0.84,-3.21 0,-3.6 -2.92,-6.53 -6.53,-6.53 -0.15,0 -0.29,0.01 -0.44,0.02l-43.23 -0c-6,0.37 -11.26,4.16 -13.51,9.73l-16.71 44.81c-1.98,5.4 0.72,9.77 6.13,9.77z"/>
    <polygon class="fil3" points="1359.47,302.28 1527.59,302.28 1538.71,272.42 1370.6,272.42 "/>
    <line class="fil2 str2" x1="1470.13" y1="307.19" x2="1465.31" y2= "320.16" />
    <line class="fil2 str2" x1="1463.64" y1="307.19" x2="1458.82" y2= "320.16" />
    <line class="fil2 str2" x1="1457.2" y1="307.19" x2="1452.34" y2= "320.16" />
    <line class="fil2 str2" x1="1450.71" y1="307.19" x2="1445.9" y2= "320.16" />
    <line class="fil2 str2" x1="1444.23" y1="307.19" x2="1439.41" y2= "320.16" />
    <line class="fil2 str2" x1="1437.74" y1="307.19" x2="1432.93" y2= "320.16" />
    <line class="fil2 str2" x1="1431.26" y1="307.19" x2="1426.44" y2= "320.16" />
    <line class="fil2 str2" x1="1424.77" y1="307.19" x2="1419.96" y2= "320.16" />
    <line class="fil2 str2" x1="1418.33" y1="307.19" x2="1413.47" y2= "320.16" />
    <line class="fil2 str2" x1="1411.85" y1="307.19" x2="1407.03" y2= "320.16" />
    <path class="fil4" d="M1429.5 388.61l40.53 -25.81c0.44,-0.35 0.99,-0.54 1.56,-0.54 0.4,0 0.79,0.09 1.14,0.27 0.43,0.32 0.68,0.83 0.68,1.37 0,0.33 -0.1,0.65 -0.28,0.93l-18.64 40.22c-0.49,1.03 -1.42,1.79 -2.52,2.07l-0.63 0c-0.04,0 -0.08,0 -0.11,0 -0.65,0 -1.22,-0.42 -1.42,-1.04l-4.5 -13.24 -16.21 0c-0.04,0.01 -0.09,0.01 -0.14,0.01 -0.82,0 -1.49,-0.66 -1.49,-1.48 0,-0.02 0,-0.03 0,-0.05 0.18,-1.19 0.94,-2.2 2.03,-2.7l0 -0z"/>
    <polygon class="fil3" points="1430.31,390.42 1471.03,364.61 1452.38,404.83 1447.74,390.6 "/>
    <polygon class="fil4" points="1354.25,390.42 1394.96,364.61 1376.27,404.83 1371.68,390.6 "/>
    <polygon class="fil4" points="1333.4,413.29 1337.05,405.01 1341.86,411.99 "/>
    <polygon class="fil4" points="1235.04,677.29 1238.69,669 1243.51,675.98 "/>
    <polygon class="fil4" points="1204.82,758.31 1208.52,750.02 1213.29,756.96 "/>
    <polygon class="fil4" points="1173.88,841.35 1177.58,833.07 1182.35,840.05 "/>
    <polygon class="fil4" points="1347.22,583.75 1350.92,575.47 1355.69,582.4 "/>
    <polygon class="fil4" points="1312.37,677.29 1316.06,669 1320.83,675.98 "/>
    <polygon class="fil4" points="1282.19,758.31 1285.84,750.02 1290.66,756.96 "/>
    <polygon class="fil4" points="1251.21,841.35 1254.9,833.07 1259.68,840.05 "/>
    <polygon class="fil4" points="1429.5,502.19 1422.43,506.74 1402.98,466.17 1410.05,461.57 "/>
    <path class="fil4" d="M1420.77 462.43c10.31,-8.02 11.03,-9.64 8.51,-18.74 5.31,7.3 6.89,7.43 18.01,1.49 -10.31,8.06 -11.03,9.68 -8.51,18.78 -5.13,-7.29 -6.71,-7.43 -18.01,-1.53z"/>
    <path class="fil4" d="M1386.81 466.79c6.35,-4.95 6.8,-5.94 5.27,-11.57 3.29,4.5 4.23,4.5 11.21,0.95 -6.35,4.95 -6.8,5.94 -5.22,11.57 -3.29,-4.5 -4.28,-4.59 -11.26,-0.95z"/>
    <path class="fil4" d="M1388.75 485.89c4.5,-3.56 4.86,-4.23 3.74,-8.24 2.34,3.2 3.06,3.24 8.02,0.63 -4.5,3.56 -4.82,4.28 -3.74,8.29 -2.34,-3.24 -3.02,-3.29 -8.02,-0.67z"/>
    <polygon class="fil4" points="1286.7,665.89 1282.33,669 1262.87,628.38 1267.24,625.27 "/>
    <polygon class="fil4" points="1303,491.7 1338.89,468.96 1322.46,504.44 1318.36,491.88 "/>
    <path class="fil4" d="M1330.02 493.82c13.15,0 26.75,-7.79 30.31,-17.34 3.56,-9.55 -4.28,-17.21 -17.52,-17.21 -13.24,0 -26.75,7.79 -30.31,17.29 -3.56,9.5 4.32,17.25 17.52,17.25zm12.11 -32.56c12.02,0 19.23,6.85 16.12,15.22 -3.11,8.38 -15.45,15.22 -27.47,15.22 -12.03,0 -19.27,-6.8 -16.12,-15.22 3.15,-8.42 15.45,-15.22 27.47,-15.22z"/>
    <path class="fil4" d="M1345.83 490.35c3.59,-0.26 6.73,-2.55 8.06,-5.9 0.33,-0.59 0.51,-1.26 0.51,-1.94 0,-2.19 -1.77,-3.96 -3.96,-3.96 -0.08,0 -0.16,0 -0.24,0.01 -3.6,0.26 -6.73,2.55 -8.06,5.9 -0.33,0.59 -0.51,1.26 -0.51,1.94 0,2.19 1.78,3.96 3.96,3.96 0.08,0 0.16,-0 0.24,-0.01l0 0zm3.6 -9.68c0.07,-0.01 0.14,-0.01 0.21,-0.01 1.39,0 2.52,1.13 2.52,2.52 0,0.45 -0.12,0.89 -0.34,1.27 -0.85,2.18 -2.89,3.67 -5.22,3.83 -2.07,0 -3.15,-1.71 -2.39,-3.83 0.88,-2.15 2.91,-3.61 5.22,-3.78l0 0z"/>
    <path class="fil4" d="M1345.24 496.52l1.44 -1.98c-2.16,-0.55 -3.8,-2.31 -4.19,-4.51 -0,-0.09 -0.01,-0.18 -0.01,-0.27 0,-1.71 0.54,-3.38 1.53,-4.78l-1.71 -0.72c-1.32,1.85 -2.03,4.07 -2.03,6.34 0,0.11 0,0.22 0.01,0.33 0.42,2.67 2.36,4.85 4.95,5.58l0 0z"/>
    <polygon class="fil4" points="1367.76,555.06 1392.84,536.83 1398.16,545.29 1373.07,563.53 "/>
    <path class="fil4" d="M1407.93 578.71l-4.1 2.97 -9.01 -14.59c0.67,-0.57 1.05,-1.41 1.05,-2.29 0,-0.4 -0.08,-0.81 -0.24,-1.18 -0.67,-1.13 -2.52,-1.13 -4.05,0 -1.06,0.6 -1.72,1.72 -1.72,2.94 0,0.38 0.06,0.76 0.19,1.11 0.49,0.56 1.19,0.88 1.94,0.88 0.48,0 0.95,-0.13 1.35,-0.38l9.01 14.59 -3.83 2.79 -22.52 -6.35 -1.4 -13.51 24.72 -18.01 11.03 6.17 -2.43 24.86z"/>
    <line class="fil2 str2" x1="1431.62" y1="521.38" x2="1286.92" y2= "521.38" />
    <polygon class="fil4" points="1305.79,536.83 1311.11,545.29 1286.02,563.53 1280.71,555.06 "/>
    <path class="fil4" d="M1323.54 553.85l-2.66 24.82 -4.1 2.97 -9.01 -14.59c0.66,-0.57 1.05,-1.41 1.05,-2.29 0,-0.4 -0.08,-0.81 -0.24,-1.18 -0.68,-1.13 -2.52,-1.13 -4.05,0 -1.06,0.6 -1.72,1.72 -1.72,2.94 0,0.38 0.06,0.75 0.19,1.11 0.49,0.56 1.19,0.88 1.93,0.88 0.48,0 0.95,-0.13 1.35,-0.38l9.01 14.59 -3.83 2.79 -22.52 -6.35 -1.4 -13.51 24.72 -18.01 11.26 6.22z"/>
    <path class="fil4" d="M1329.75 561.19c-0.27,-1.76 -0.5,-3.65 -0.67,-5.77 -0.05,-0.5 -0.08,-1 -0.08,-1.5 0,-3.6 1.29,-7.08 3.63,-9.8 2.93,-3.27 6.75,-5.64 10.99,-6.8 0.68,0 1.21,0 1.12,0.81 -0.13,0.7 -0.66,1.27 -1.35,1.44 -3.44,1 -6.56,2.92 -9.01,5.54 -1.87,2.25 -2.9,5.09 -2.9,8.02 0,0.43 0.02,0.87 0.07,1.3 0,2.07 0.45,3.96 0.68,5.67 1.21,9.01 1.94,14.41 -13.01,23.37 -0.24,0.17 -0.52,0.26 -0.81,0.27 -0.01,0 -0.03,0 -0.04,0 -0.31,0 -0.59,-0.17 -0.73,-0.45 -0.01,-0.08 -0.02,-0.17 -0.02,-0.25 0,-0.6 0.34,-1.15 0.88,-1.41 12.93,-7.79 12.43,-11.48 11.26,-20.45z"/>
    <path class="fil4" d="M1393.79 621.4l-0.9 2.34c-1.27,3.61 -2.79,7.15 -4.51,10.58l-4.19 -1.04c1.16,-2.33 2.22,-4.75 3.11,-7.2l-18.01 -0 -14.95 40.17 6.71 0 -1.76 4.5 -18.01 0 1.76 -4.5 6.67 0 15.04 -40.35 -17.43 0 -3.11 8.47 -4.73 0 4.01 -10.81 0.9 -2.34 49.4 0.18z"/>
    <path class="fil6" d="M1299.76 732.73c-3.87,10.36 4.5,18.74 18.92,18.74 14.41,0 29,-8.38 32.83,-18.74 3.83,-10.36 -4.5,-18.69 -18.92,-18.69 -14.41,0 -29,8.38 -32.83,18.69z"/>
    <path class="fil2 str3" d="M1299.76 732.73c-3.87,10.36 4.5,18.74 18.92,18.74 14.41,0 29,-8.38 32.83,-18.74 3.83,-10.36 -4.5,-18.69 -18.92,-18.69 -14.41,0 -29,8.38 -32.83,18.69z"/>
    <path class="fil4" d="M1246.48 733.27l-16.98 -30.85c-0.59,-0.82 -1.54,-1.31 -2.55,-1.31 -0.71,0 -1.39,0.24 -1.95,0.67l0 0c-1.89,0.79 -3.13,2.64 -3.13,4.69 0,0.13 0.01,0.26 0.02,0.39l9.01 34.09 15.58 -7.7z"/>
    <g>
     <path class="fil4" d="M1249.27 735.88c-6.67,-0.9 -19.73,4.82 -20.08,13.51 0.11,1.93 1.27,3.66 3.01,4.5 4.94,2.23 10.31,3.38 15.73,3.38 1.09,0 2.19,-0.05 3.28,-0.14 -1.3,-1.01 -2.06,-2.56 -2.06,-4.2 0,-0.5 0.07,-1 0.21,-1.48 0.89,-2.48 1.94,-4.93 3.11,-7.3 1.22,-3.47 0.59,-8.11 -3.2,-8.38l0 0.09zm0 0l0 0 0 0z"/>
    </g>
    <path class="fil4" d="M1284.63 803.57c1.39,-3.22 3.49,-6.1 6.12,-8.42l5.13 8.15c-3.03,2.61 -5.45,5.88 -7.07,9.55 -1.48,3.25 -3.21,6.42 -5.14,9.41l-5 -8.02c2.28,-3.37 4.28,-6.96 5.95,-10.68l0 0z"/>
    <path class="fil4" d="M1290.53 812.98c1.43,-3.21 3.54,-6.08 6.17,-8.42l5.13 8.2c-3.04,2.62 -5.48,5.89 -7.12,9.55 -1.45,3.26 -3.16,6.41 -5.08,9.41l-5.04 -8.02c2.31,-3.37 4.32,-6.98 5.94,-10.72l0 0z"/>
    <path class="fil4" d="M1282.87 803.43c-1.46,3.26 -3.17,6.41 -5.09,9.41l-7.39 -11.8 16.53 -12.07 3.06 4.86c-3.03,2.65 -5.46,5.93 -7.12,9.59l0 -0z"/>
    <path class="fil4" d="M1296.47 822.44c1.4,-3.22 3.49,-6.1 6.12,-8.42l4.5 6.85 -0.77 15.54c-0.12,1.02 -0.98,1.79 -2.01,1.79 -0.13,0 -0.25,-0.01 -0.37,-0.04l-13.15 -5.18c2.18,-3.33 4.1,-6.88 5.68,-10.53l-0 -0zm5.81 10.63l0.4 -8.29 -7.52 5.5 7.12 2.79z"/>
    <path class="fil4" d="M1231.57 810.91l5.63 9.01 -29.09 21.21 -5.63 -9.01 -1.76 1.31 -13.51 -21.21 32.65 -23.78 13.29 21.21 -1.57 1.26zm-21.53 25.08l22.02 -16.08 -4.01 -6.44 -22.07 16.08 4.05 6.44z"/>
    <polygon class="fil4" points="1506.24,280.35 1505.16,283.19 1509.21,288.14 1501.47,293.09 1500.43,295.98 1512.59,288.14 "/>
    <polygon class="fil4" points="1516.42,280.35 1515.34,283.19 1519.39,288.14 1511.65,293.09 1510.57,295.98 1522.77,288.14 "/>
    <polygon class="fil3" points="824.91,626.67 1172.62,626.67 1278.91,330.16 931.19,330.16 "/>
    <polygon class="fil0" points="849.59,610.5 1159.56,610.5 1254.23,346.37 944.25,346.37 "/>
    <polygon class="fil4" points="908.54,446.08 959.79,408.34 1000.27,513.45 1105.25,483.82 1159.56,610.5 849.59,610.5 "/>
    <path class="fil4" d="M1122.14 402.94c7.21,-20.08 29.32,-36.39 49.54,-36.39 20.22,0 30.53,16.3 23.33,36.39 -7.21,20.08 -29.32,36.39 -49.54,36.39 -20.22,0 -30.58,-16.08 -23.33,-36.39z"/>
    <polygon class="fil3" points="788.88,575.64 1136.59,575.64 1242.88,279.13 895.16,279.13 "/>
    <polygon class="fil0" points="813.56,559.48 1123.53,559.48 1218.2,295.3 908.22,295.3 "/>
    <polygon class="fil4" points="872.51,395.05 923.76,357.32 964.25,462.43 1069.22,432.79 1123.53,559.48 813.56,559.48 "/>
    <path class="fil4" d="M1086.11 351.91c7.21,-20.08 29.32,-36.39 49.54,-36.39 20.22,0 30.53,16.3 23.33,36.39 -7.21,20.08 -29.32,36.39 -49.54,36.39 -20.22,0 -30.58,-16.3 -23.33,-36.39z"/>
    <path class="fil7" d="M787.3 232.61l-8.33 20.26 2.39 0c1.27,-2.73 2.86,-5.3 4.73,-7.66 2.01,-2.29 4.49,-4.15 7.25,-5.45 2.76,-1.16 5.74,-1.76 8.74,-1.76 0.18,0 0.37,0 0.55,0.01l12.2 0 -24.18 66.07c-1,3.68 -2.84,7.09 -5.36,9.95 -2.29,1.75 -5.09,2.71 -7.98,2.71 -0.15,0 -0.3,-0 -0.44,-0.01l-3.02 0 -0.86 2.34 36.66 0 0.86 -2.34 -3.06 0c-3.65,0 -5.81,-1.13 -6.53,-3.33 -0.01,-0.24 -0.01,-0.48 -0.01,-0.72 0,-2.98 0.69,-5.93 2,-8.6l24.18 -66.07 10.36 0c0.46,-0.03 0.93,-0.04 1.4,-0.04 2.33,0 4.65,0.32 6.89,0.94 1.93,0.83 3.39,2.48 3.96,4.5 0.28,1.2 0.42,2.43 0.42,3.67 0,1.91 -0.34,3.82 -1.01,5.61l2.43 0 6.39 -20.27 -70.62 0.18z"/>
    <line class="fil2 str4" x1="734.66" y1="273.37" x2="708.22" y2= "273.37" />
    <polygon class="fil2 str4" points="709.08,343.44 842.2,343.44 891.51,208.61 758.39,208.61 "/>
    <polygon class="fil4 str4" points="861.16,278.32 871.16,278.32 874.81,268.37 864.81,268.37 "/>
    <polygon class="fil4 str4" points="727.86,278.32 737.85,278.32 741.5,268.37 731.5,268.37 "/>
    <polygon class="fil4 str4" points="884.58,214.33 894.53,214.33 898.18,204.37 888.22,204.37 "/>
    <polygon class="fil4 str4" points="751.27,214.33 761.23,214.33 764.87,204.37 754.92,204.37 "/>
    <polygon class="fil4 str4" points="817.88,214.33 827.83,214.33 831.48,204.37 821.53,204.37 "/>
    <polygon class="fil4 str4" points="835.81,347.63 845.8,347.63 849.45,337.68 839.45,337.68 "/>
    <polygon class="fil4 str4" points="702.5,347.63 712.5,347.63 716.15,337.68 706.15,337.68 "/>
    <line class="fil2 str4" x1="774.87" y1="345.83" x2="765.19" y2= "372.31" />
    <polygon class="fil4 str4" points="769.11,347.63 779.11,347.63 782.75,337.68 772.76,337.68 "/>
    <polygon class="fil3" points="758.26,377.31 768.25,377.31 771.9,367.31 761.9,367.31 "/>
    <line class="fil2 str4" x1="850.17" y1="318.18" x2="738.35" y2= "318.18" />
    <path class="fil3" d="M702.95 273.37c1.17,-2.99 3.96,-5.04 7.16,-5.27 0.07,-0.01 0.14,-0.01 0.22,-0.01 1.96,0 3.56,1.59 3.56,3.56 0,0.6 -0.15,1.19 -0.44,1.72 -1.17,2.98 -3.96,5.01 -7.16,5.22 -0.09,0.01 -0.18,0.01 -0.27,0.01 -1.94,0 -3.51,-1.57 -3.51,-3.51 0,-0.6 0.15,-1.2 0.45,-1.72z"/>
   </g>
   <g id="freepik--Table--inject-4">
    <polygon class="fil8" points="1320.16,988.39 1199.51,1091.79 1314.48,1654.33 1306.69,1654.33 1178.79,1102.1 1061.61,1200.37 1227.07,1653.65 1216.71,1651.94 1042.65,1210.73 558.34,1651.94 263.64,1651.94 608.33,976.32 "/>
    <polygon class="fil3 str2" points="1306.69,1654.33 1314.48,1654.33 1326.15,978.75 1295.03,978.75 "/>
    <polygon class="fil3 str2" points="636.3,1654.33 644.09,1654.33 655.75,978.75 624.64,978.75 "/>
    <rect class="fil4 str2" x="588.83" y="968.31" width="749.2" height="17.52"/>
   </g>
   <g id="freepik--paper-bin--inject-4">
    <path class="fil4 str2" d="M1507.19 1331.02l13.51 28.73c0,0 -16.66,18.01 -24.23,18.01 -7.57,0 -10.58,-7.57 -19.68,-10.63 -9.1,-3.06 -24.18,-31.75 -24.18,-31.75 0,0 9.01,-15.13 18.01,-16.66 9.01,-1.53 22.52,-6.03 30.26,-7.57 7.75,-1.53 6.31,19.86 6.31,19.86z"/>
    <path class="fil2 str2" d="M1507.19 1331.02l-9.01 15.13 0 13.51c0,0 -9.01,4.5 -12.11,0 -3.11,-4.5 -16.66,-19.68 -16.66,-19.68l6.08 -13.51"/>
    <line class="fil2 str2" x1="1498.14" y1="1359.75" x2="1514.75" y2= "1356.73" />
    <path class="fil4 str2" d="M1246.44 1603.17l30.58 9.01c0,0 2.66,24.5 -2.34,30.17 -5,5.67 -12.7,2.97 -20.94,7.79 -8.24,4.82 -39.86,-2.84 -39.86,-2.84 0,0 -5.4,-16.8 -0.54,-24.59 4.86,-7.79 10.45,-21.08 14.32,-27.74 3.87,-6.66 18.78,8.2 18.78,8.2z"/>
    <path class="fil2 str2" d="M1246.44 1603.17l5.36 16.84 10.22 9.01c0,0 -2.57,9.82 -7.97,9.01 -5.4,-0.81 -25.81,-0.5 -25.81,-0.5l-6.21 -13.51"/>
    <line class="fil2 str2" x1="1262.02" y1="1629.06" x2="1270.76" y2= "1614.56" />
    <path class="fil4 str2" d="M1555.65 1324.94c0,0 25.71,16.66 21.17,25.76 -4.55,9.1 -7.57,15.13 -12.11,18.01 -4.55,2.88 -18.01,7.57 -22.52,4.5 -4.5,-3.06 -15.13,-10.58 -16.62,-22.52 -1.49,-11.93 -6.08,-13.51 -1.53,-19.68 4.55,-6.17 31.62,-6.08 31.62,-6.08z"/>
    <path class="fil2 str2" d="M1576.99 1350.7l-18.01 12.11 -15.13 -1.53 -6.03 -16.66c-0,-4.97 4.03,-9.01 9,-9.01 0.27,-0.01 0.56,-0.02 0.83,-0.02 4.62,0 9.1,1.6 12.68,4.52l-3.06 9.01"/>
    <path class="fil4 str2" d="M1443.64 1303.77c0,0 22.52,21.17 19.68,36.3 -2.84,15.13 -31.79,27.25 -31.79,27.25l-34.81 -19.64 10.63 -27.02 22.52 -12.11 13.78 -4.77z"/>
    <polyline class="fil2 str2" points="1463.32,1340.07 1439.1,1349.17 1411.85,1340.07 1422.48,1315.89 "/>
    <polyline class="fil2 str2" points="1443.64,1303.77 1445.18,1335.57 1426.98,1341.6 "/>
    <path class="fil4 str2" d="M1375.55 1588.26c0,0 22.52,21.21 19.68,36.34 -2.84,15.13 -31.8,27.25 -31.8,27.25l-34.81 -19.68 10.58 -27.25 22.74 -12.11 13.6 -4.55z"/>
    <polyline class="fil2 str2" points="1395.23,1624.6 1371,1633.65 1343.76,1624.6 1354.34,1600.37 "/>
    <polyline class="fil2 str2" points="1375.55,1588.26 1377.08,1620.05 1358.89,1626.13 "/>
    <path class="fil4 str2" d="M1526.87 1281.07c0,0 22.52,21.17 19.68,36.3 -2.84,15.13 -31.8,27.02 -31.8,27.02l-34.77 -19.68 10.58 -27.02 22.52 -12.11 13.78 -4.5z"/>
    <polyline class="fil2 str2" points="1546.55,1317.37 1522.32,1326.47 1495.12,1317.37 1505.7,1293.19 "/>
    <polyline class="fil2 str2" points="1526.87,1281.07 1528.4,1312.87 1510.25,1318.9 "/>
    <polygon class="fil3 str2" points="1399.91,1654.33 1579.52,1654.33 1606.45,1356.6 1372.98,1356.6 "/>
    <path class="fil4 str2" d="M1519.3 1604.92c0,0 25.76,16.66 21.21,25.71 -4.55,9.05 -7.57,15.13 -12.11,18.01 -4.55,2.88 -18.01,7.57 -22.52,4.5 -4.5,-3.06 -15.13,-10.58 -16.66,-22.52 -1.53,-11.93 -6.03,-13.51 -1.49,-19.68 4.55,-6.17 31.57,-6.04 31.57,-6.04z"/>
    <path class="fil2 str2" d="M1540.52 1630.64l-18.01 12.11 -15.13 -1.49 -6.03 -16.66c-0,-4.98 4.03,-9.01 9,-9.01 0.29,-0.01 0.6,-0.02 0.89,-0.02 4.6,0 9.06,1.6 12.62,4.52l-3.02 9.01"/>
   </g>
   <g id="freepik--Character--inject-4">
    <path class="fil9 str2" d="M1043.15 762.45c-0.08,0.52 -0.13,1.05 -0.13,1.58 0,5.57 4.52,10.09 10.09,10.09 5.57,0 10.09,-4.52 10.09,-10.09 0,-5.57 -4.52,-10.09 -10.09,-10.09 -0,0 -0.01,0 -0.01,0 -0.22,-0.02 -0.44,-0.02 -0.66,-0.02 -4.84,0 -8.88,3.71 -9.29,8.54l0 0z"/>
    <path class="fil9 str2" d="M1033.55 788.39c-0.08,0.52 -0.13,1.05 -0.13,1.58 0,5.57 4.52,10.09 10.09,10.09 5.57,0 10.09,-4.52 10.09,-10.09 0,-5.57 -4.52,-10.09 -10.09,-10.09 -0,0 -0.01,0 -0.01,0 -0.22,-0.02 -0.44,-0.02 -0.66,-0.02 -4.84,0 -8.88,3.71 -9.29,8.54l0 0z"/>
    <path class="fil9 str2" d="M1024.01 814.33c-0.08,0.52 -0.13,1.05 -0.13,1.58 0,5.57 4.52,10.09 10.09,10.09 5.57,0 10.09,-4.51 10.09,-10.09 0,-5.57 -4.52,-10.09 -10.09,-10.09 -0,0 -0.01,0 -0.01,0 -0.22,-0.02 -0.44,-0.02 -0.66,-0.02 -4.84,0 -8.88,3.71 -9.29,8.54l0 0z"/>
    <path class="fil9 str2" d="M1014.42 840.27c-0.08,0.52 -0.13,1.05 -0.13,1.58 0,5.57 4.52,10.09 10.09,10.09 5.57,0 10.09,-4.52 10.09,-10.09 0,-5.56 -4.5,-10.07 -10.05,-10.09 -0.22,-0.01 -0.45,-0.02 -0.67,-0.02 -4.85,0 -8.9,3.7 -9.33,8.54l0 0z"/>
    <polygon class="fil3 str2" points="1149.34,966.64 1217.52,966.64 1227.79,853.56 1139.07,853.56 "/>
    <polygon class="fil0 str2" points="1142.45,890.76 1220.81,930.66 1217.52,966.64 1181.05,966.64 1145.65,925.97 "/>
    <rect class="fil0 str2" x="1131.19" y="840.05" width="104.48" height="24.59"/>
    <path class="fil3 str2" d="M947.49 968.17l122.72 0c0.28,0.01 0.56,0.02 0.84,0.02 8.6,0 15.58,-6.98 15.58,-15.58 0,-8.6 -6.98,-15.58 -15.58,-15.58 -0.28,0 -0.56,0.01 -0.84,0.02l-122.72 0c-0.28,-0.02 -0.56,-0.03 -0.84,-0.03 -8.6,0 -15.58,6.98 -15.58,15.58 0,8.6 6.98,15.58 15.58,15.58 0.28,0 0.56,-0.01 0.84,-0.02l0 0z"/>
    <polygon class="fil3 str2" points="621.08,968.31 998.88,968.31 1088.99,723.04 711.19,723.04 "/>
    <polygon class="fil9 str2" points="645.04,942.82 967.67,942.82 1044.59,733.4 722,733.4 "/>
    <path class="fil3 str2" d="M581.72 1055.9c8.71,12.84 18.69,24.96 29.63,36.03 34.56,31.22 64.31,67.5 88.21,107.45 33.87,57.42 57.47,116.1 79.89,166.9 22.43,50.8 63.05,144.56 83.36,173.11 20.31,28.55 34.05,43.82 34.05,43.82 0,0 33.55,0.77 73.27,-2.75 39.72,-3.51 56.16,-10.67 56.66,-0.31 0.5,10.36 -27.02,38.78 -46.57,43.73 -19.55,4.95 -45.04,12.52 -50.98,18.42 -5.95,5.9 -13.51,12.65 -23.51,8.33 -10,-4.32 -39.77,-45.98 -73.05,-74.67 -33.28,-28.69 -73,-57.1 -108.94,-123.98 -35.94,-66.88 -37.83,-105.11 -63.05,-130.24 -25.22,-25.13 -51.79,-64.54 -83.95,-85.3 -32.15,-20.76 -128.12,-59.22 -158.79,-99.08 -30.67,-39.86 -14.68,-88.63 14.82,-106.06 29.5,-17.43 125.8,-23.73 148.95,24.59z"/>
    <path class="fil4 str2" d="M839.05 1497.24c6.9,14.58 14.89,28.71 23.73,42.19 20.54,28.51 34.05,43.82 34.05,43.82 0,0 33.55,0.77 73.27,-2.75 39.72,-3.51 56.16,-10.67 56.66,-0.31 0.5,10.36 -27.02,38.77 -46.57,43.73 -19.55,4.95 -45.03,12.52 -50.98,18.42 -5.94,5.9 -13.51,12.66 -23.51,8.33 -10,-4.32 -39.77,-45.98 -73.05,-74.67 -15.49,-13.51 -32.38,-26.71 -49.54,-43.82 21.81,-5.52 41.4,-17.76 55.93,-34.95l-0 0z"/>
    <path class="fil0 str2" d="M905.7 1650.68c-5.38,-3.59 -10.17,-8 -14.19,-13.06 27.02,-5.36 40.8,-18.92 53.14,-22.52 11.25,-3.31 22.04,-8.15 32.02,-14.32l-13.51 -19.86 6.85 -0.59c39.72,-3.51 56.16,-10.67 56.66,-0.31 0.49,10.36 -27.02,38.78 -46.57,43.73 -19.54,4.95 -45.03,12.52 -50.98,18.42 -5.95,5.9 -13.64,12.83 -23.41,8.51z"/>
    <g>
     <path class="fil3" d="M859 1182.72c-5.23,22.54 -13.02,44.49 -23.1,65.33 -15.94,31.89 -51.02,65.35 -76.56,84.49 -25.53,19.14 -107.59,92.46 -148.26,150.64 -5.09,7.3 14.37,31.89 38.28,53.41 23.91,21.53 34.27,29.5 21.53,33.46 -12.75,3.96 -43.05,2.39 -73.36,-23.1 -30.31,-25.49 -50.21,-42.24 -59.76,-63.05 -4.77,-10.36 21.53,-23.15 37.47,-36.66 15.94,-13.51 74.94,-102.82 93.27,-144.11 18.33,-41.3 64.54,-100.43 98.81,-121.14l91.69 0.73zm0 0l0 0 0 0z"/>
     <path id="_1" class="fil2 str2" d="M859 1182.72c-5.23,22.54 -13.02,44.49 -23.1,65.33 -15.94,31.89 -51.02,65.35 -76.56,84.49 -25.53,19.14 -107.59,92.46 -148.26,150.64 -5.09,7.3 14.37,31.89 38.28,53.41 23.91,21.53 34.27,29.5 21.53,33.46 -12.75,3.96 -43.05,2.39 -73.36,-23.1 -30.31,-25.49 -50.21,-42.24 -59.76,-63.05 -4.77,-10.36 21.53,-23.15 37.47,-36.66 15.94,-13.51 74.94,-102.82 93.27,-144.11 18.33,-41.3 64.54,-100.43 98.81,-121.14m91.69 0.73l0 0 0 0z"/>
    </g>
    <path class="fil4 str2" d="M537.81 1484c-4.77,-10.36 21.53,-23.15 37.47,-36.66 13.51,-11.39 57.24,-76.33 81.74,-121.32l54.04 47.92c-33.73,31.21 -74.94,73.14 -100.16,109.26 -5.09,7.3 14.37,31.89 38.28,53.41 23.92,21.53 34.27,29.5 21.53,33.46 -12.75,3.96 -43.05,2.39 -73.36,-23.1 -30.31,-25.49 -49.99,-42.24 -59.54,-62.96z"/>
    <path class="fil0 str2" d="M554.2 1462.84c4.28,6.39 9.86,15.09 16.3,25.94 15.13,25.49 56.56,58.19 62.15,52.6 3.36,-3.79 6.19,-8.05 8.38,-12.61 2.7,2.61 5.49,5.27 8.38,7.84 23.91,21.53 34.27,29.5 21.53,33.46 -12.75,3.96 -43.05,2.39 -73.36,-23.1 -30.31,-25.49 -50.21,-42.24 -59.76,-63.05 -2.88,-6.21 5.67,-13.37 16.39,-21.07z"/>
    <rect class="fil4 str2" x="337.76" y="1535.79" width="270.98" height="12.75"/>
    <path class="fil4 str2" d="M584.06 1193.89l47.2 453.32c0.01,0.12 0.02,0.24 0.02,0.36 0,2.01 -1.63,3.65 -3.65,3.65 -0.01,0 -0.01,0 -0.02,0l-0 0c-1.8,-0 -3.34,-1.33 -3.6,-3.11l-70.48 -454.22 30.53 0z"/>
    <path class="fil4 str2" d="M367.26 1193.89l-47.42 453.32c-0.01,0.13 -0.02,0.27 -0.02,0.4 0,1.99 1.61,3.6 3.6,3.6 0.01,0 0.02,0 0.02,0l0 0c0.01,0 0.03,0 0.04,0 1.8,0 3.32,-1.33 3.57,-3.11l70.48 -454.22 -30.26 0z"/>
    <path class="fil4 str2" d="M453.32 1193.89l-2.21 453.68c0.02,2 1.64,3.62 3.65,3.65l0 0c0,0 0,0 0,0 1.94,0 3.53,-1.53 3.6,-3.47l25.35 -453.86 -30.4 0z"/>
    <path class="fil0" d="M603.11 1125.34l-250.94 0c-12.36,-0 -22.38,10.02 -22.38,22.38l0 28.55c0,12.36 10.02,22.38 22.38,22.38l250.94 0c12.36,0 22.38,-10.02 22.38,-22.38l0 -28.55c0,-12.36 -10.02,-22.38 -22.38,-22.38z"/>
    <g>
    </g>
    <g style="clip-path:url(#id0)">
     <g>
      <path class="fil8" d="M352.04 1125.34l245.35 0 7.29 15.31c0,0 -226.44,3.96 -226.44,17.02 0,13.06 -3.92,30.13 40.53,30.13 36.03,0 156.95,1.71 201.71,2.34 -1.79,2.24 -3.99,4.13 -6.48,5.54l-13.15 2.97 -248.82 0c-12.43,0 -22.52,-10.08 -22.52,-22.52l0 -28.55c0.15,-12.33 10.19,-22.24 22.52,-22.24 0,0 0,0 0,0l-0 0z"/>
     </g>
    </g>
    <path class="fil2" d="M603.11 1125.34l-250.94 0c-12.36,-0 -22.38,10.02 -22.38,22.38l0 28.55c0,12.36 10.02,22.38 22.38,22.38l250.94 0c12.36,0 22.38,-10.02 22.38,-22.38l0 -28.55c0,-12.36 -10.02,-22.38 -22.38,-22.38z"/>
    <path class="fil2 str2" d="M603.11 1125.34l-250.94 0c-12.36,-0 -22.38,10.02 -22.38,22.38l0 28.55c0,12.36 10.02,22.38 22.38,22.38l250.94 0c12.36,0 22.38,-10.02 22.38,-22.38l0 -28.55c0,-12.36 -10.02,-22.38 -22.38,-22.38z"/>
    <g>
     <path class="fil3" d="M852.65 1211.36c5.58,-18.33 28.69,-54.99 -82.1,-131.5 -58.55,-40.53 -185.72,-71.74 -185.72,-71.74l-11.93 -13.51c0,0 -34.27,36.03 -101.24,33.51 -66.97,-2.52 -108.4,-31.89 -116.37,-29.5 -7.97,2.39 -8.74,23.1 -5.58,62.15 3.15,39.05 7.21,58.99 38.28,68.54 31.08,9.55 99.62,12.75 149.02,11.98 24.5,0 49.07,-1.48 73.38,-3.99 24.31,-2.52 105.97,66.97 172.13,71.74l70.15 2.33zm0 0l0 0 0 0z"/>
     <path id="_1_0" class="fil2 str2" d="M852.65 1211.36c5.58,-18.33 28.69,-54.99 -82.1,-131.5 -58.55,-40.53 -185.72,-71.74 -185.72,-71.74l-11.93 -13.51c0,0 -34.27,36.03 -101.24,33.51 -66.97,-2.52 -108.4,-31.89 -116.37,-29.5 -7.97,2.39 -8.74,23.1 -5.58,62.15 3.15,39.05 7.21,58.99 38.28,68.54 31.08,9.55 99.62,12.75 149.02,11.98 24.5,0 49.07,-1.48 73.38,-3.99 24.31,-2.52 105.97,66.97 172.13,71.74m70.15 2.33l0 0 0 0z"/>
    </g>
    <path class="fil4 str2" d="M607.16 772.27c4.82,1.49 150.64,30.26 163.39,27.88 12.75,-2.39 46.2,-31.07 58.18,-30.31 11.98,0.77 36.03,4.82 38.23,11.17 2.21,6.35 -5.59,27.92 -5.59,27.92 0,0 7.97,11.93 4.01,17.52 -3.96,5.58 -27.02,-7.97 -27.02,-7.97 0,0 -26.3,19.14 -38.23,15.13 -11.93,-4.01 -24.73,-8.74 -24.73,-8.74 0,0 -187.3,11.12 -189.69,11.93 -2.39,0.81 -25.49,5.58 -27.88,-27.88 -2.39,-33.46 21.39,-45.44 49.31,-36.66z"/>
    <line class="fil2 str2" x1="861.38" y1="808.93" x2="828.74" y2= "781.81" />
    <polygon class="fil3" points="849.45,796.95 831.93,741.96 824.73,743.54 833.51,783.39 "/>
    <path class="fil4" d="M721.33 830.45c0,0 193.65,53.37 224.73,49.54 31.07,-3.83 40.53,-17.56 47.83,-17.56 7.3,0 27.02,9.59 36.03,8.78 9.01,-0.81 19.09,-3.2 19.09,2.39 0,5.58 -7.97,14.37 -12.75,14.37 -4.77,0 -23.91,-0.81 -23.91,-0.81 0,0 37.47,11.17 39.09,18.33 0.17,0.84 0.26,1.7 0.26,2.56 0,6.24 -4.51,11.56 -10.66,12.57 -3.81,0.69 -7.38,2.35 -10.36,4.82 -1.61,6.25 -4.32,12.19 -7.97,17.52 -4.77,5.58 -19.1,7.97 -35.04,4.77 -15.94,-3.2 -43.86,-17.52 -50.21,-21.53 -6.35,-4.01 -200.05,-21.53 -214.41,-24.68 -14.37,-3.15 -31.89,-3.2 -37.47,-12.79 -5.58,-9.59 35.76,-58.27 35.76,-58.27z"/>
    <g>
    </g>
    <g style="clip-path:url(#id1)">
     <g>
      <path class="fil0" d="M955.51 918.63c33.28,0 25.9,-33.28 36.97,-27.7 9.68,4.82 47.47,9.64 58.18,21.84 -1.75,4.09 -5.41,7.05 -9.77,7.93 -3.81,0.69 -7.38,2.35 -10.36,4.82 -1.61,6.25 -4.32,12.19 -7.97,17.52 -4.77,5.58 -19.1,7.97 -35.04,4.77 -15.94,-3.2 -43.86,-17.52 -50.21,-21.53 -6.35,-4.01 -200.05,-21.53 -214.41,-24.68 -11.58,-2.61 -25.26,-3.11 -33.01,-8.24l-4.5 -4.5 20.58 -20.08c0,0 216.13,49.85 249.54,49.85z"/>
      <path class="fil10" d="M955.51 918.63c33.28,0 25.9,-33.28 36.97,-27.7 9.68,4.82 47.47,9.64 58.18,21.84 -1.75,4.09 -5.41,7.05 -9.77,7.92 -3.81,0.69 -7.38,2.35 -10.36,4.82 -1.61,6.25 -4.32,12.19 -7.97,17.52 -4.77,5.58 -19.09,7.97 -35.04,4.77 -15.94,-3.2 -43.86,-17.52 -50.21,-21.53 -6.35,-4.01 -200.05,-21.53 -214.41,-24.68 -11.58,-2.61 -25.26,-3.11 -33.01,-8.24l-4.51 -4.5 20.58 -20.09c0,0 216.13,49.85 249.54,49.85z"/>
     </g>
    </g>
    <path class="fil2" d="M721.33 830.45c0,0 193.65,53.37 224.73,49.54 31.07,-3.83 40.53,-17.56 47.83,-17.56 7.3,0 27.02,9.59 36.03,8.78 9.01,-0.81 19.09,-3.2 19.09,2.39 0,5.58 -7.97,14.37 -12.75,14.37 -4.77,0 -23.91,-0.81 -23.91,-0.81 0,0 37.47,11.17 39.09,18.33 0.17,0.84 0.26,1.7 0.26,2.56 0,6.24 -4.51,11.56 -10.66,12.57 -3.81,0.69 -7.38,2.35 -10.36,4.82 -1.61,6.25 -4.32,12.19 -7.97,17.52 -4.77,5.58 -19.1,7.97 -35.04,4.77 -15.94,-3.2 -43.86,-17.52 -50.21,-21.53 -6.35,-4.01 -200.05,-21.53 -214.41,-24.68 -14.37,-3.15 -31.89,-3.2 -37.47,-12.79 -5.58,-9.59 35.76,-58.27 35.76,-58.27z"/>
    <path class="fil2 str2" d="M721.33 830.45c0,0 193.65,53.37 224.73,49.54 31.07,-3.83 40.53,-17.56 47.83,-17.56 7.3,0 27.02,9.59 36.03,8.78 9.01,-0.81 19.09,-3.2 19.09,2.39 0,5.58 -7.97,14.37 -12.75,14.37 -4.77,0 -23.91,-0.81 -23.91,-0.81 0,0 37.47,11.17 39.09,18.33 0.17,0.84 0.26,1.7 0.26,2.56 0,6.24 -4.51,11.56 -10.66,12.57 -3.81,0.69 -7.38,2.35 -10.36,4.82 -1.61,6.25 -4.32,12.19 -7.97,17.52 -4.77,5.58 -19.1,7.97 -35.04,4.77 -15.94,-3.2 -43.86,-17.52 -50.21,-21.53 -6.35,-4.01 -200.05,-21.53 -214.41,-24.68 -14.37,-3.15 -31.89,-3.2 -37.47,-12.79 -5.58,-9.59 35.76,-58.27 35.76,-58.27z"/>
    <path class="fil0" d="M557.76 635.18c0,0 17.52,47.78 39.81,79.67 22.29,31.89 31.89,65.39 17.56,101.24 -7.71,20.77 -24.44,36.96 -45.44,44 -21,7.04 11.17,105.2 7.97,133.12 -3.2,27.92 -46.21,60.57 -110.79,63.05 -64.58,2.48 -120.33,-20.72 -120.33,-43.05 0,-22.34 45.4,-141.05 45.4,-165.77 0,-24.72 -3.96,-102 17.56,-171.13 21.53,-69.13 97.24,-92.14 148.26,-41.12z"/>
    <g>
    </g>
    <g style="clip-path:url(#id2)">
     <g>
      <path class="fil8" d="M409.5 675.8c11.57,-37.34 38.91,-61.02 69.62,-66.97 14.82,3.29 55.3,12.75 65.39,15.13 4.71,3.35 9.16,7.13 13.24,11.21 4.08,4.08 17.52,47.78 39.81,79.67 15,21.39 24.18,43.5 24.32,66.52 -58.82,13.92 -148.62,36.57 -139.61,39.09 12.93,3.69 68.37,-25.9 51.75,-7.39 -16.62,18.51 -105.38,103.58 -79.49,96.11 25.9,-7.48 83.18,-68.41 68.37,-38.82 -14.82,29.59 -55.44,77.64 -42.52,77.64 12.92,0 81.33,-68.41 57.33,-27.74 -24.01,40.67 -133.08,105.38 -97.95,114.61 20.27,5.31 63.27,3.92 88.23,8.11 -19.35,8.02 -40.08,12.47 -61.01,13.02 -64.54,2.38 -120.33,-20.72 -120.33,-43.06 0,-22.33 45.39,-141.05 45.39,-165.77 0,-24.72 -3.97,-102 17.47,-171.35z"/>
     </g>
    </g>
    <path class="fil2" d="M557.76 635.18c0,0 17.52,47.78 39.81,79.67 22.29,31.89 31.89,65.39 17.56,101.24 -7.71,20.77 -24.44,36.96 -45.44,44 -21,7.04 11.17,105.2 7.97,133.12 -3.2,27.92 -46.21,60.57 -110.79,63.05 -64.58,2.48 -120.33,-20.72 -120.33,-43.05 0,-22.34 45.4,-141.05 45.4,-165.77 0,-24.72 -3.96,-102 17.56,-171.13 21.53,-69.13 97.24,-92.14 148.26,-41.12z"/>
    <path class="fil2 str2" d="M557.76 635.18c0,0 17.52,47.78 39.81,79.67 22.29,31.89 31.89,65.39 17.56,101.24 -7.71,20.77 -24.44,36.96 -45.44,44 -21,7.04 11.17,105.2 7.97,133.12 -3.2,27.92 -46.21,60.57 -110.79,63.05 -64.58,2.48 -120.33,-20.72 -120.33,-43.05 0,-22.34 45.4,-141.05 45.4,-165.77 0,-24.72 -3.96,-102 17.56,-171.13 21.53,-69.13 97.24,-92.14 148.26,-41.12z"/>
    <path class="fil2 str2" d="M547.94 828.56c0,0 -58.55,94.58 -144.11,121.6"/>
    <path class="fil2 str2" d="M554.7 844.32c0,0 -22.52,74.31 -81.06,110.34"/>
    <path class="fil2 str2" d="M542.63 784.79c0,0 -52.92,-23.06 -74.62,-37.96"/>
    <path class="fil2 str2" d="M564.33 790.24c0,0 -19,4.05 -67.82,0"/>
    <g>
     <path class="fil0" d="M562.53 647.11c12.27,7.82 23.56,17.22 33.46,27.88 18.33,19.14 106.82,153.12 106.82,153.12 0,0 -26.3,55.03 -34.27,56.61 -7.97,1.58 -146.68,-117.09 -159.42,-131.5 -12.75,-14.41 -20.72,-40.53 -16.75,-51.84l70.17 -54.27zm0 0l0 0 0 0z"/>
    </g>
    <g>
    </g>
    <g style="clip-path:url(#id3)">
     <g>
      <path class="fil8" d="M509.12 753.13c-12.75,-14.37 -20.72,-40.53 -16.75,-51.84l31.52 -24.32 10.09 10.4c0,0 0.68,40.8 36.97,62.82 36.3,22.02 51.75,22.2 57.29,49.9 5.54,27.7 -12.92,35.13 9.23,38.82 22.16,3.69 36.97,5.54 36.97,20.36 -0.15,7.31 -0.7,14.67 -1.66,21.93 -1.06,1.51 -2.51,2.69 -4.19,3.42 -8.02,1.58 -146.73,-117.18 -159.47,-131.5z"/>
     </g>
    </g>
    <path class="fil2" d="M562.53 647.11c12.27,7.82 23.56,17.22 33.46,27.88 18.33,19.14 106.82,153.12 106.82,153.12 0,0 -26.3,55.03 -34.27,56.61 -7.97,1.58 -146.68,-117.09 -159.42,-131.5 -12.75,-14.41 -20.72,-40.53 -16.75,-51.84m70.17 -54.27l0 0 0 0z"/>
    <path class="fil2 str2" d="M562.53 647.11c12.27,7.82 23.56,17.22 33.46,27.88 18.33,19.14 106.82,153.12 106.82,153.12 0,0 -26.3,55.03 -34.27,56.61 -7.97,1.58 -146.68,-117.09 -159.42,-131.5 -12.75,-14.41 -20.72,-40.53 -16.75,-51.84"/>
    <path class="fil4 str2" d="M733.08 835.99c0,0 -24.73,59 -30.26,65.39 -5.54,6.4 -35.08,2.39 -44.63,-4.82 -9.55,-7.21 -7.97,-21.48 -7.97,-21.48 0,0 36.66,-64.58 40.53,-67.55 3.87,-2.97 5.58,4.01 22.52,9.59 16.93,5.59 23.01,7.75 19.81,18.87z"/>
    <path class="fil4" d="M693.22 484.54c0,0 1.62,23.1 -2.39,30.26 -4.01,7.16 -15.13,14.37 -15.13,23.91 0,9.55 7.97,22.52 5.58,29.5 -2.39,6.98 -15.18,7.97 -15.18,7.97 0,0 -23.87,29.5 -31.07,39.86 -7.21,10.36 -10.36,6.35 -21.53,3.2 -11.17,-3.15 -35.04,-23.91 -48.59,-39.86 -13.56,-15.94 9.01,-64.58 38.23,-97.23 29.23,-32.65 73.36,-31.89 82.91,-22.52 9.55,9.37 7.16,24.91 7.16,24.91z"/>
    <g>
    </g>
    <g style="clip-path:url(#id4)">
     <g>
      <path class="fil0" d="M630.04 462.2c3.69,18.01 7.39,48.95 -3.69,69.89 -16.66,31.53 -29.59,48.05 -20.36,73.95 1.67,4.5 3.38,8.65 5.04,12.25 -11.89,-5.09 -33.51,-24.09 -46.12,-38.91 -13.51,-15.94 9.01,-64.58 38.23,-97.23 7.53,-8.36 16.7,-15.17 26.89,-19.96l0 0.01z"/>
      <path class="fil10" d="M630.04 462.2c3.69,18.01 7.39,48.95 -3.69,69.89 -16.66,31.52 -29.59,48.05 -20.36,73.95 1.67,4.51 3.38,8.65 5.04,12.25 -11.89,-5.09 -33.51,-24.09 -46.12,-38.91 -13.51,-15.94 9.01,-64.58 38.23,-97.23 7.52,-8.36 16.69,-15.17 26.89,-19.96l0 0.01z"/>
      <path class="fil2 str2" d="M675.71 518.81c0,0 0,-11.98 -14.37,-4.01"/>
      <path class="fil2 str2" d="M665.48 529.89l-1.89 11.03c0,0 -8.74,3.02 -15.18,-8.38"/>
     </g>
    </g>
    <path class="fil2" d="M693.22 484.54c0,0 1.62,23.1 -2.39,30.26 -4.01,7.16 -15.13,14.37 -15.13,23.91 0,9.55 7.97,22.52 5.58,29.5 -2.39,6.98 -15.18,7.97 -15.18,7.97 0,0 -23.87,29.5 -31.07,39.86 -7.21,10.36 -10.36,6.35 -21.53,3.2 -11.17,-3.15 -35.04,-23.91 -48.59,-39.86 -13.56,-15.94 9.01,-64.58 38.23,-97.23 29.23,-32.65 73.36,-31.89 82.91,-22.52 9.55,9.37 7.16,24.91 7.16,24.91z"/>
    <path class="fil2 str2" d="M693.22 484.54c0,0 1.62,23.1 -2.39,30.26 -4.01,7.16 -15.13,14.37 -15.13,23.91 0,9.55 7.97,22.52 5.58,29.5 -2.39,6.98 -15.18,7.97 -15.18,7.97 0,0 -23.87,29.5 -31.07,39.86 -7.21,10.36 -10.36,6.35 -21.53,3.2 -11.17,-3.15 -35.04,-23.91 -48.59,-39.86 -13.56,-15.94 9.01,-64.58 38.23,-97.23 29.23,-32.65 73.36,-31.89 82.91,-22.52 9.55,9.37 7.16,24.91 7.16,24.91z"/>
    <path class="fil3" d="M717.95 449.46l0 3.2 1.44 39.04 -43.01 5.58 -9.59 -16.75 0 18.33c-2.44,-0.2 -4.9,-0.31 -7.35,-0.31 -10.83,0 -21.6,2 -31.69,5.89 -20.72,7.97 -47.02,64.58 -45.44,87.68 1.58,23.1 21.53,27.88 19.14,63.05 -2.39,35.17 -55.75,70.03 -96.28,47.74 -40.53,-22.29 -47.06,-51.02 -63.77,-45.44 -16.71,5.58 -42.24,39.86 -58.18,-8.78 -15.94,-48.64 -8.78,-79.67 28.69,-119.52 37.47,-39.85 66.92,-36.66 71.74,-68.54 4.82,-31.89 15.13,-74.94 49.54,-99.08 34.41,-24.14 83.68,-25.49 126.1,-7.16 42.42,18.33 58.68,74.35 58.68,95.07z"/>
    <g>
    </g>
    <g style="clip-path:url(#id5)">
     <g>
      <path class="fil11" d="M693.99 467.74c0.14,0.02 0.28,0.03 0.43,0.03 0.14,0 0.29,-0.01 0.43,-0.03 4.5,-1.04 5.22,-9.01 5.67,-28.37 0,-5.04 0.23,-10.22 0.54,-14.37 0,-0.4 0,-0.77 0,-1.04 3.83,4.5 11.93,23.64 18.01,40.53l4.23 -1.53c-16.3,-45.39 -21.62,-44.72 -23.33,-44.45 -3.11,0.4 -3.42,4.5 -3.56,6.03 -0.31,4.23 -0.45,9.5 -0.54,14.55 0,8.02 -0.5,21.17 -2.16,23.91 -2.18,-2.24 -3.9,-4.89 -5.05,-7.79 -4.5,-9.37 -9.01,-13.51 -13.15,-13.51 -5.31,0 -8.11,7.29 -10.09,12.47 -0.47,1.27 -1.04,2.53 -1.66,3.74 -1.98,0.54 -9.01,-6.62 -12.75,-10.49l-3.29 -3.33c-1.53,-1.99 -3.88,-3.19 -6.4,-3.24 -2.52,0.4 -3.74,2.75 -5.04,5.18 -1.19,2.63 -2.93,4.98 -5.09,6.89 -1.44,1.12 -2.16,0.95 -2.48,0.9 -3.24,-0.81 -7.16,-9.55 -11.71,-19.64 -1.04,-2.39 -2.16,-4.86 -3.38,-7.48 -1.21,-2.61 -3.51,-6.98 -6.85,-6.67 -4.19,0.32 -6.12,6.89 -9.01,16.84 -1.76,7.94 -4.81,15.56 -9.01,22.52 -1.04,1.26 -2.43,2.7 -3.74,2.57 -3.51,-0.59 -7.39,-10.99 -9.73,-17.2 -1.04,-3.1 -2.34,-6.11 -3.87,-9 -0.7,-1.49 -2.19,-2.43 -3.83,-2.43 -3.33,0 -5.63,4.5 -8.74,10.63 -2.34,4.5 -5.54,10.85 -8.2,11.89 -0.54,0.22 -0.72,0 -0.86,0 -1.76,-0.9 -3.24,-6.71 -4.5,-11.35 -1.06,-5.21 -2.93,-10.26 -5.5,-14.91 -1.34,-2.21 -3.57,-3.74 -6.12,-4.19 -5.9,-0.95 -12.47,4.14 -16.84,7.57 0.23,-2.3 0.72,-5.45 1.13,-8.2 2.25,-15 2.88,-22.25 -0.86,-24.32 -1.76,-0.95 -3.83,-0.4 -6.17,1.67 -4.05,3.82 -7.92,7.88 -11.53,12.12 -8.24,9.28 -20.76,23.24 -25.81,21.89 -1.39,-0.36 -2.16,-2.52 -2.52,-4.23l-4.5 0.9c0.95,4.5 2.88,6.94 5.77,7.7 7.25,1.89 17.11,-8.42 30.35,-23.24 3.57,-4.2 7.43,-8.25 11.44,-12.04 0.32,-0.3 0.69,-0.58 1.08,-0.8 0.06,1.23 0.09,2.51 0.09,3.75 0,5.25 -0.53,10.51 -1.57,15.66 -1.62,10.58 -1.94,13.51 0,14.73 0.45,0.29 0.97,0.45 1.51,0.45 0.54,0 1.06,-0.16 1.51,-0.45 0.77,-0.54 1.76,-1.26 2.84,-2.16 3.56,-2.75 9.5,-7.3 13.51,-6.71 1.31,0.24 2.45,1.05 3.11,2.21 2.26,4.24 3.91,8.8 4.87,13.51 1.76,6.67 3.24,12.43 6.8,14.23 0.7,0.33 1.47,0.5 2.25,0.5 0.78,0 1.55,-0.17 2.25,-0.5 4.23,-1.67 7.43,-7.97 10.54,-14.01 1.23,-2.79 2.75,-5.48 4.51,-7.97l-0 -0c1.4,2.7 2.57,5.52 3.51,8.42 3.33,9.01 7.11,19.1 13.28,20.04 0.19,0.02 0.37,0.02 0.56,0.02 3.04,0 5.85,-1.62 7.37,-4.25 4.58,-7.35 7.9,-15.46 9.77,-23.91 0.99,-4.74 2.73,-9.31 5.14,-13.51 0.9,1.26 1.68,2.63 2.3,4.05 1.21,2.57 2.34,5.09 3.38,7.43 5.63,12.56 9.37,20.85 14.77,22.16 0.47,0.09 0.96,0.14 1.44,0.14 1.82,0 3.57,-0.68 4.91,-1.9 2.63,-2.28 4.76,-5.12 6.22,-8.29 0.46,-1.02 1.07,-1.98 1.8,-2.84 0.73,-0.85 0.72,0 2.48,1.94l3.24 3.33c7.48,7.66 12.25,12.25 16.35,11.93 1.39,-0.13 2.63,-0.9 3.38,-2.07 0.84,-1.43 1.56,-2.94 2.12,-4.5 1.26,-3.33 3.69,-9.5 6.12,-9.59 0.72,0 3.74,0.67 9.01,10.99 3.87,7.34 6.62,10.49 9.41,10.49z"/>
      <path class="fil2 str5" d="M604.23 648.69c0,0 -11.17,-41.57 -22.52,-28.37 -11.35,13.19 -19.23,17.25 -20.27,6.08 -1.03,-11.17 0,-27.38 -11.17,-12.16 -11.17,15.22 -38.5,30.4 -40.53,7.07 -2.03,-23.33 -5.09,-54.76 -18.28,-38.5 -13.19,16.26 -24.32,28.37 -25.35,19.23 -1.04,-9.14 -10.13,-16.21 -14.19,-6.08 -4.05,10.13 -7.12,20.31 -10.13,-3.02 -3.02,-23.33 11.17,-48.68 -4.05,-42.6 -15.22,6.08 -22.52,26.35 -22.52,15.22 0,-11.12 18.28,-24.36 2.03,-20.31 -16.26,4.05 -18.24,14.23 -20.27,8.15 -2.03,-6.08 9.01,-20.31 -5.09,-20.31"/>
     </g>
    </g>
    <path class="fil2" d="M717.95 449.46l0 3.2 1.44 39.04 -43.01 5.58 -9.59 -16.75 0 18.33c-2.44,-0.2 -4.9,-0.31 -7.35,-0.31 -10.83,0 -21.6,2 -31.69,5.89 -20.72,7.97 -47.02,64.58 -45.44,87.68 1.58,23.1 21.53,27.88 19.14,63.05 -2.39,35.17 -55.75,70.03 -96.28,47.74 -40.53,-22.29 -47.06,-51.02 -63.77,-45.44 -16.71,5.58 -42.24,39.86 -58.18,-8.78 -15.94,-48.64 -8.78,-79.67 28.69,-119.52 37.47,-39.85 66.92,-36.66 71.74,-68.54 4.82,-31.89 15.13,-74.94 49.54,-99.08 34.41,-24.14 83.68,-25.49 126.1,-7.16 42.42,18.33 58.68,74.35 58.68,95.07z"/>
    <path class="fil2 str2" d="M717.95 449.46l0 3.2 1.44 39.04 -43.01 5.58 -9.59 -16.75 0 18.33c-2.44,-0.2 -4.9,-0.31 -7.35,-0.31 -10.83,0 -21.6,2 -31.69,5.89 -20.72,7.97 -47.02,64.58 -45.44,87.68 1.58,23.1 21.53,27.88 19.14,63.05 -2.39,35.17 -55.75,70.03 -96.28,47.74 -40.53,-22.29 -47.06,-51.02 -63.77,-45.44 -16.71,5.58 -42.24,39.86 -58.18,-8.78 -15.94,-48.64 -8.78,-79.67 28.69,-119.52 37.47,-39.85 66.92,-36.66 71.74,-68.54 4.82,-31.89 15.13,-74.94 49.54,-99.08 34.41,-24.14 83.68,-25.49 126.1,-7.16 42.42,18.33 58.68,74.35 58.68,95.07z"/>
   </g>
   <g id="freepik--Floor--inject-4">
    <line class="fil2 str6" x1="1648.01" y1="1654.33" x2="-0" y2= "1654.33" />
   </g>
  </g>
 </g>
</svg>
